<svg width="46" height="57" viewBox="0 0 46 57" fill="none" xmlns="http://www.w3.org/2000/svg">
<path d="M23.2652 6.23921C22.9693 6.23921 22.6838 6.19543 22.4151 6.11426V10.0466H24.1152V6.11426C23.8465 6.19554 23.561 6.23921 23.2652 6.23921Z" fill="#135693"/>
<path d="M23.2676 6.34991C24.9184 6.34991 26.2567 5.05523 26.2567 3.45816C26.2567 1.86109 24.9184 0.566406 23.2676 0.566406C21.6168 0.566406 20.2786 1.86109 20.2786 3.45816C20.2786 5.05523 21.6168 6.34991 23.2676 6.34991Z" fill="#6BC1DD"/>
<g opacity="0.15">
<path opacity="0.15" d="M22.7945 3.45816C22.7945 2.29607 23.5034 1.29457 24.5257 0.834903C24.1431 0.662981 23.7172 0.566406 23.2676 0.566406C21.6168 0.566406 20.2786 1.86115 20.2786 3.45816C20.2786 5.05517 21.6168 6.3498 23.2676 6.3498C23.7172 6.3498 24.1431 6.25323 24.5257 6.08131C23.5034 5.62175 22.7945 4.62025 22.7945 3.45816Z" fill="#440075"/>
</g>
<path d="M42.3197 14.561H40.5571V30.2922H42.3197C43.286 30.2922 44.0766 29.5274 44.0766 28.5926V16.2607C44.0766 15.3259 43.286 14.561 42.3197 14.561Z" fill="#9EA7AF"/>
<path d="M5.97783 14.5605H4.09891C3.13262 14.5605 2.3421 15.3254 2.3421 16.2602V28.592C2.3421 29.5268 3.13262 30.2916 4.09891 30.2916H5.97772L5.97783 14.5605Z" fill="#9EA7AF"/>
<path d="M7.17584 50.8731H4.76142C3.93713 50.8731 3.1714 50.6308 2.53607 50.2158V55.7507C2.53607 56.374 3.06316 56.8839 3.70736 56.8839H7.17584V50.8731Z" fill="#C5CCD3"/>
<path d="M41.7734 50.8729H39.3591V56.8838H42.8276C43.4718 56.8838 43.9989 56.3739 43.9989 55.7506V50.2158C43.3634 50.6306 42.5977 50.8729 41.7734 50.8729Z" fill="#C5CCD3"/>
<path opacity="0.15" d="M4.99574 55.7508V50.8731H4.76142C3.93713 50.8731 3.1714 50.6308 2.53607 50.2158V55.7507C2.53607 56.374 3.06316 56.8839 3.70736 56.8839H6.16703C5.52283 56.884 4.99574 56.3741 4.99574 55.7508Z" fill="#440075"/>
<path d="M7.1759 42.21H4.76148C2.56217 42.21 0.779205 43.9349 0.779205 46.0626V47.1958C0.779205 49.3235 2.56228 51.0483 4.76148 51.0483H7.17579L7.1759 42.21Z" fill="#E6E9ED"/>
<path d="M41.7734 42.2095H39.3591V51.048H41.7734C43.9729 51.048 45.7557 49.323 45.7557 47.1954V46.0622C45.7557 43.9343 43.9728 42.2095 41.7734 42.2095Z" fill="#E6E9ED"/>
<g opacity="0.15">
<path opacity="0.15" d="M3.59031 47.1953V46.0621C3.59031 43.9343 5.37327 42.2095 7.57258 42.2095H4.76148C2.56217 42.2095 0.779205 43.9344 0.779205 46.0621V47.1953C0.779205 49.323 2.56228 51.0479 4.76148 51.0479H7.57258C5.37316 51.0479 3.59031 49.323 3.59031 47.1953Z" fill="#440075"/>
</g>
<path d="M27.1558 34.6709H19.3802V37.4819H27.1558V34.6709Z" fill="#9EA7AF"/>
<path opacity="0.15" d="M22.2136 34.6709H19.3802V37.4819H22.2136V34.6709Z" fill="#440075"/>
<path d="M32.4139 40.1642V38.3356C32.4139 37.7982 31.9593 37.3584 31.4038 37.3584H14.7901C14.2345 37.3584 13.78 37.7982 13.78 38.3356V40.1642H32.4139Z" fill="#C5CCD3"/>
<path opacity="0.15" d="M17.283 40.1642V38.3356C17.283 37.7982 17.7376 37.3584 18.2933 37.3584H14.7901C14.2345 37.3584 13.78 37.7982 13.78 38.3356V40.1642H17.283Z" fill="#440075"/>
<path d="M37.7156 39.9722H8.81891C7.85261 39.9722 7.06198 40.7371 7.06198 41.6719V56.8844H39.4725V41.6719C39.4725 40.7371 38.682 39.9722 37.7156 39.9722Z" fill="#9EA7AF"/>
<g opacity="0.15">
<path opacity="0.15" d="M12.1737 39.9722H8.81891C7.85261 39.9722 7.06198 40.7371 7.06198 41.6719V56.8844H10.4168V41.6719C10.4168 40.7371 11.2074 39.9722 12.1737 39.9722Z" fill="#440075"/>
</g>
<path d="M40.6708 33.1011C40.6708 34.0359 39.8801 34.8007 38.9139 34.8007H7.62082C6.65465 34.8007 5.86401 34.0359 5.86401 33.1011V11.6366C5.86401 10.7018 6.65465 9.93701 7.62082 9.93701H38.9139C39.8801 9.93701 40.6708 10.7018 40.6708 11.6366V33.1011Z" fill="#C5CCD3"/>
<g opacity="0.15">
<path opacity="0.15" d="M9.21221 33.1011V11.6366C9.21221 10.7018 10.0028 9.93701 10.9691 9.93701H7.62082C6.65465 9.93701 5.86401 10.7018 5.86401 11.6366V33.1012C5.86401 34.036 6.65465 34.8008 7.62082 34.8008H10.9691C10.0028 34.8007 9.21221 34.0359 9.21221 33.1011Z" fill="#440075"/>
</g>
<path d="M36.5132 22.4004C36.5132 25.6429 33.7963 28.271 30.4449 28.271H16.0899C12.7383 28.271 10.0214 25.6428 10.0214 22.4004C10.0214 19.158 12.7383 16.5298 16.0899 16.5298H30.4449C33.7963 16.5298 36.5132 19.158 36.5132 22.4004Z" fill="#135693"/>
<g opacity="0.15">
<path opacity="0.15" d="M13.4287 22.4004C13.4287 19.158 16.1456 16.5298 19.4972 16.5298H16.0899C12.7383 16.5298 10.0214 19.1581 10.0214 22.4004C10.0214 25.6429 12.7383 28.271 16.0899 28.271H19.4972C16.1456 28.271 13.4287 25.6428 13.4287 22.4004Z" fill="#440075"/>
</g>
<path d="M15.4839 24.695C16.787 24.695 17.8435 23.6689 17.8435 22.4032C17.8435 21.1374 16.787 20.1113 15.4839 20.1113C14.1807 20.1113 13.1242 21.1374 13.1242 22.4032C13.1242 23.6689 14.1807 24.695 15.4839 24.695Z" fill="#6BC1DD"/>
<path d="M31.0965 24.6936C32.3997 24.6936 33.4562 23.6675 33.4562 22.4017C33.4562 21.136 32.3997 20.1099 31.0965 20.1099C29.7934 20.1099 28.7369 21.136 28.7369 22.4017C28.7369 23.6675 29.7934 24.6936 31.0965 24.6936Z" fill="#6BC1DD"/>
<path d="M33.7358 56.8829V47.0043C33.7358 46.381 33.2087 45.8711 32.5645 45.8711H13.9708C13.3266 45.8711 12.7996 46.381 12.7996 47.0043V56.8829H33.7358Z" fill="#135693"/>
<path d="M25.3758 56.883V53.6969C25.3758 53.5099 25.2177 53.3569 25.0245 53.3569H21.5106C21.3175 53.3569 21.1593 53.5099 21.1593 53.6969V56.883H25.3758Z" fill="#FFC502"/>
<path d="M18.3482 49.418H15.6543C15.1832 49.418 14.8016 49.0487 14.8016 48.593C14.8016 48.1373 15.1832 47.7681 15.6543 47.7681H18.3482C18.8192 47.7681 19.2009 48.1373 19.2009 48.593C19.2009 49.0486 18.8192 49.418 18.3482 49.418Z" fill="#C5CCD3"/>
<path d="M17.177 51.4302H15.6543C15.1833 51.4302 14.8016 51.0609 14.8016 50.6052C14.8016 50.1495 15.1833 49.7803 15.6543 49.7803H17.177C17.6481 49.7803 18.0297 50.1495 18.0297 50.6052C18.0297 51.0609 17.648 51.4302 17.177 51.4302Z" fill="#C5CCD3"/>
<path d="M18.3482 53.4458H15.6543C15.1833 53.4458 14.8016 53.0765 14.8016 52.6209C14.8016 52.1651 15.1833 51.7959 15.6543 51.7959H18.3482C18.8192 51.7959 19.2009 52.1651 19.2009 52.6209C19.2009 53.0766 18.8192 53.4458 18.3482 53.4458Z" fill="#C5CCD3"/>
<path d="M16.8256 55.4585H15.6543C15.1833 55.4585 14.8016 55.0893 14.8016 54.6336C14.8016 54.178 15.1833 53.8086 15.6543 53.8086H16.8256C17.2966 53.8086 17.6783 54.178 17.6783 54.6336C17.6783 55.0893 17.2965 55.4585 16.8256 55.4585Z" fill="#C5CCD3"/>
<path d="M30.4939 54.6317H28.4147C27.9214 54.6317 27.5216 54.2448 27.5216 53.7674C27.5216 53.2901 27.9215 52.9033 28.4147 52.9033H30.4939C30.9873 52.9033 31.3872 53.2902 31.3872 53.7674C31.3872 54.2449 30.9873 54.6317 30.4939 54.6317Z" fill="#E6E9ED"/>
<path d="M29.455 51.6367C30.491 51.6367 31.3309 50.8241 31.3309 49.8217C31.3309 48.8194 30.491 48.0068 29.455 48.0068C28.4189 48.0068 27.579 48.8194 27.579 49.8217C27.579 50.8241 28.4189 51.6367 29.455 51.6367Z" fill="#5DC647"/>
<path d="M25.4279 50.7717C25.4279 50.9633 25.2659 51.12 25.068 51.12H21.4675C21.2695 51.12 21.1075 50.9633 21.1075 50.7717V48.8728C21.1075 48.6812 21.2695 48.5244 21.4675 48.5244H25.068C25.2659 48.5244 25.4279 48.6812 25.4279 48.8728V50.7717Z" fill="#6BC1DD"/>
</svg>
