<svg width="1147" height="72" viewBox="0 0 1147 72" fill="none" xmlns="http://www.w3.org/2000/svg">
<path d="M17.9567 69.3024L11.9975 58.9807L20.743 43.8745L26.3004 53.501L59.1069 53.4833L49.7979 69.4449L17.9567 69.3024Z" fill="#FFAD64"/>
<path d="M64.9648 43.2347L59.0056 53.5563L41.5506 53.5357L47.1086 43.9095L30.6901 15.5071L49.1677 15.5881L64.9648 43.2347Z" fill="#ADD4D3"/>
<path d="M18.8748 15.4512H30.7931L39.5028 30.5782L28.3871 30.5777L11.9993 58.9979L2.8306 42.9553L18.8748 15.4512Z" fill="#FB8351"/>
<path fill-rule="evenodd" clip-rule="evenodd" d="M32.2463 13.0617L32.2108 13H17.4668L0 42.9431L11.99 63.9223L12.0047 63.8969L16.5374 71.7478L51.2023 71.9029L63.3759 51.0295H63.2949L67.792 43.2404L50.5939 13.1422L32.2463 13.0617ZM43.6518 33.0302H43.7437L35.0767 17.9774L47.7413 18.0329L62.1375 43.2277L57.6314 51.0327L45.8226 51.0389L49.9399 43.9081L43.6518 33.0302ZM29.2438 17.9032L35.1536 28.1267L26.9712 28.1264L12.9627 52.4199L12.0072 54.0706L5.6619 42.9681L20.2831 17.9032H29.2438ZM23.5619 43.8543L29.8037 33.0297L37.9881 33.03L44.2772 43.9095L40.159 51.0421L27.7154 51.0488L23.5619 43.8543ZM14.8338 58.9906L17.2085 54.8725L20.7398 48.7729L24.8853 55.9535L37.327 55.9468L37.3069 55.9816L54.7996 56.0023L48.3932 66.987L19.3756 66.8572L14.8338 58.9906Z" fill="#333237"/>
<path d="M82.0711 63.3735V51.8959H77.829V50.6074H87.9388V51.8959H83.6965V63.3735H82.0711Z" fill="white"/>
<path d="M92.4557 63.5722C90.7773 63.5722 89.5219 63.1691 88.6893 62.363C87.8567 61.5569 87.4405 60.3146 87.4405 58.6362C87.4405 57.1297 87.7973 55.947 88.5109 55.0879C89.2377 54.2157 90.3809 53.7795 91.9403 53.7795C92.8653 53.7795 93.6252 53.9514 94.2199 54.2951C94.8278 54.6253 95.2772 55.0879 95.568 55.6826C95.8718 56.2641 96.0238 56.9249 96.0238 57.6649V59.4292H89.066C89.1188 60.1428 89.2708 60.7044 89.5218 61.1142C89.7862 61.5238 90.176 61.8211 90.6915 62.0062C91.22 62.1779 91.9139 62.2638 92.7728 62.2638C93.7375 62.2638 94.623 62.0987 95.4291 61.7683V63.037C95.0195 63.2088 94.5569 63.341 94.0415 63.4335C93.5393 63.526 93.0108 63.5722 92.4557 63.5722ZM89.066 58.2597H94.5767V57.4865C94.5767 56.72 94.3719 56.1319 93.9622 55.7223C93.5658 55.2994 92.905 55.0879 91.9799 55.0879C90.8566 55.0879 90.0902 55.3522 89.6804 55.8809C89.2708 56.4094 89.066 57.2024 89.066 58.2597Z" fill="white"/>
<path d="M102.847 63.5722C101.208 63.5722 99.992 63.1493 99.1992 62.3035C98.4062 61.4446 98.0097 60.2353 98.0097 58.6759C98.0097 57.024 98.459 55.795 99.3578 54.9889C100.256 54.1827 101.466 53.7795 102.985 53.7795C103.607 53.7795 104.122 53.8258 104.532 53.9184C104.941 53.9976 105.338 54.1298 105.721 54.3148V55.6033C105.007 55.2597 104.195 55.0879 103.283 55.0879C102.12 55.0879 101.221 55.3655 100.587 55.9206C99.9523 56.4623 99.6352 57.3808 99.6352 58.6759C99.6352 59.9181 99.9128 60.83 100.468 61.4115C101.023 61.9798 101.941 62.2638 103.223 62.2638C104.135 62.2638 104.974 62.0921 105.741 61.7485V63.0568C105.331 63.2287 104.888 63.3541 104.413 63.4335C103.95 63.526 103.428 63.5722 102.847 63.5722Z" fill="white"/>
<path d="M107.563 63.3735V50.0127H109.188V54.9884C109.625 54.6316 110.133 54.3408 110.715 54.1162C111.31 53.8914 111.997 53.7791 112.776 53.7791C113.913 53.7791 114.765 54.0567 115.334 54.6117C115.902 55.1668 116.186 56.039 116.186 57.2283V63.3735H114.561V57.2878C114.561 56.4684 114.376 55.9002 114.006 55.583C113.649 55.2527 113.054 55.0874 112.221 55.0874C111.693 55.0874 111.144 55.2063 110.576 55.4442C110.021 55.6689 109.559 55.9663 109.188 56.3363V63.3735H107.563Z" fill="white"/>
<path d="M122.669 63.5722C121.347 63.5722 120.29 63.2815 119.497 62.6999C118.704 62.1184 118.308 61.3387 118.308 60.3607C118.308 59.4621 118.585 58.689 119.14 58.0415C119.695 57.3939 120.455 56.819 121.42 56.3169C120.904 55.8015 120.468 55.3191 120.112 54.8698C119.755 54.4205 119.576 53.8786 119.576 53.2443C119.576 52.4513 119.847 51.784 120.389 51.2422C120.944 50.6871 121.724 50.4097 122.728 50.4097C123.706 50.4097 124.466 50.6673 125.008 51.1827C125.549 51.698 125.821 52.3853 125.821 53.2443C125.821 53.958 125.629 54.5593 125.245 55.0482C124.862 55.5372 124.314 56.0327 123.6 56.535L126.891 59.885C127.115 59.3961 127.228 58.7749 127.228 58.0216V57.7442H128.517V58.0216C128.517 58.5371 128.457 59.0393 128.338 59.5282C128.22 60.0172 128.047 60.4401 127.823 60.7969L129.607 62.6008L128.615 63.4928L127.029 61.9269C126.567 62.4951 125.966 62.9114 125.226 63.1757C124.486 63.44 123.633 63.5722 122.669 63.5722ZM122.589 55.742C123.211 55.3588 123.68 54.9954 123.997 54.6517C124.314 54.2949 124.473 53.8456 124.473 53.3038C124.473 52.8016 124.334 52.4051 124.056 52.1144C123.792 51.8105 123.349 51.6585 122.728 51.6585C122.094 51.6585 121.631 51.8171 121.341 52.1342C121.063 52.4514 120.924 52.8413 120.924 53.3038C120.924 53.7267 121.07 54.1165 121.36 54.4733C121.664 54.8301 122.074 55.253 122.589 55.742ZM122.669 62.4026C123.435 62.4026 124.089 62.2902 124.631 62.0656C125.186 61.8277 125.655 61.4776 126.039 61.015L122.411 57.308C121.552 57.7045 120.911 58.1339 120.488 58.5965C120.079 59.0458 119.874 59.6207 119.874 60.3212C119.874 61.0083 120.138 61.5304 120.667 61.8872C121.195 62.2307 121.863 62.4026 122.669 62.4026Z" fill="#FB8351"/>
<path d="M78.4695 41.3411V23.665H83.6296V37.3886H91.5893V41.3411H78.4695Z" fill="#FB8351"/>
<path d="M99.8905 41.6157C97.2922 41.6157 95.3708 41.0392 94.1266 39.8864C92.9007 38.7336 92.2877 37.0502 92.2877 34.8361C92.2877 32.6404 92.9098 30.9661 94.1541 29.8133C95.3984 28.6422 97.3105 28.0566 99.8905 28.0566C102.489 28.0566 104.41 28.6422 105.654 29.8133C106.917 30.9661 107.548 32.6404 107.548 34.8361C107.548 37.0502 106.926 38.7336 105.682 39.8864C104.438 41.0392 102.507 41.6157 99.8905 41.6157ZM99.8905 37.8553C100.732 37.8553 101.336 37.6175 101.702 37.1417C102.086 36.666 102.278 35.8974 102.278 34.8361C102.278 33.7932 102.086 33.0337 101.702 32.558C101.336 32.0639 100.732 31.8169 99.8905 31.8169C99.0671 31.8169 98.4724 32.0639 98.1064 32.558C97.7405 33.0337 97.5575 33.7932 97.5575 34.8361C97.5575 35.8974 97.7405 36.666 98.1064 37.1417C98.4724 37.6175 99.0671 37.8553 99.8905 37.8553Z" fill="#FB8351"/>
<path d="M115.191 46.1719C114.55 46.1719 113.855 46.1445 113.105 46.0895C112.354 46.053 111.641 45.9798 110.964 45.87C110.305 45.7603 109.756 45.6321 109.317 45.4857V42.192C109.811 42.3567 110.378 42.494 111.019 42.6037C111.677 42.7135 112.345 42.7959 113.022 42.8508C113.699 42.9056 114.321 42.9332 114.889 42.9332C115.859 42.9332 116.618 42.8782 117.167 42.7685C117.734 42.677 118.018 42.5031 118.018 42.2469C118.018 42.0274 117.926 41.881 117.743 41.8078C117.56 41.7528 117.213 41.7254 116.7 41.7254H113.269C111.934 41.7254 110.9 41.515 110.168 41.0941C109.454 40.655 109.097 40.0054 109.097 39.1454C109.097 37.9376 109.765 37.096 111.101 36.6203C110.351 36.2359 109.802 35.7511 109.454 35.1655C109.106 34.58 108.933 33.8389 108.933 32.9423C108.933 31.2588 109.5 30.0237 110.634 29.2368C111.787 28.4501 113.443 28.0566 115.602 28.0566C116.06 28.0566 116.572 28.0932 117.139 28.1664C117.707 28.2213 118.118 28.2763 118.374 28.3311H123.48L123.37 31.4601H121.641C121.97 31.881 122.135 32.3933 122.135 32.9972C122.135 34.333 121.741 35.3943 120.955 36.1811C120.186 36.9496 118.969 37.3339 117.304 37.3339C117.066 37.3339 116.81 37.3248 116.535 37.3064C116.261 37.2698 116.005 37.2424 115.767 37.224C115.364 37.2607 115.017 37.3339 114.724 37.4437C114.431 37.5534 114.285 37.7364 114.285 37.9926C114.285 38.1756 114.367 38.3037 114.532 38.3768C114.697 38.4318 114.925 38.4592 115.218 38.4592H118.21C119.546 38.4592 120.598 38.7703 121.366 39.3924C122.135 40.0146 122.519 40.9294 122.519 42.1372C122.519 43.418 121.924 44.4061 120.735 45.1014C119.546 45.8151 117.698 46.1719 115.191 46.1719ZM115.63 34.5068C116.435 34.5068 116.993 34.3695 117.304 34.0951C117.615 33.8206 117.771 33.3632 117.771 32.7227C117.771 32.0822 117.615 31.6156 117.304 31.3229C116.993 31.0302 116.435 30.8837 115.63 30.8837C114.88 30.8837 114.331 31.0302 113.983 31.3229C113.654 31.5974 113.489 32.0639 113.489 32.7227C113.489 33.3449 113.644 33.8023 113.955 34.0951C114.285 34.3695 114.843 34.5068 115.63 34.5068Z" fill="#FB8351"/>
<path d="M131.895 41.6157C129.296 41.6157 127.375 41.0392 126.13 39.8864C124.904 38.7336 124.291 37.0502 124.291 34.8361C124.291 32.6404 124.914 30.9661 126.158 29.8133C127.402 28.6422 129.315 28.0566 131.895 28.0566C134.493 28.0566 136.414 28.6422 137.658 29.8133C138.922 30.9661 139.552 32.6404 139.552 34.8361C139.552 37.0502 138.93 38.7336 137.686 39.8864C136.441 41.0392 134.511 41.6157 131.895 41.6157ZM131.895 37.8553C132.736 37.8553 133.34 37.6175 133.706 37.1417C134.09 36.666 134.283 35.8974 134.283 34.8361C134.283 33.7932 134.09 33.0337 133.706 32.558C133.34 32.0639 132.736 31.8169 131.895 31.8169C131.072 31.8169 130.476 32.0639 130.11 32.558C129.744 33.0337 129.562 33.7932 129.562 34.8361C129.562 35.8974 129.744 36.666 130.11 37.1417C130.476 37.6175 131.072 37.8553 131.895 37.8553Z" fill="#FB8351"/>
<path d="M141.82 26.6015V22.8687H147.392V26.6015H141.82ZM142.231 41.3407V32.091H140.339L140.777 28.3307H147.392V41.3407H142.231Z" fill="white"/>
<path d="M149.867 47.2697V28.3311H154.342L154.588 29.374C155.118 28.9532 155.695 28.633 156.317 28.4135C156.958 28.1755 157.698 28.0566 158.541 28.0566C160.48 28.0566 161.972 28.5506 163.015 29.5387C164.075 30.5085 164.606 32.1646 164.606 34.5067C164.606 36.8307 164.048 38.5963 162.932 39.8041C161.816 41.0118 160.279 41.6155 158.321 41.6155C157.022 41.6155 155.924 41.3686 155.027 40.8745V47.2697H149.867ZM157.003 37.8553C157.754 37.8553 158.331 37.59 158.733 37.0593C159.136 36.5287 159.337 35.7053 159.337 34.589C159.337 33.5095 159.144 32.7776 158.76 32.3933C158.393 32.009 157.827 31.8169 157.058 31.8169C156.29 31.8169 155.613 32.0731 155.027 32.5854V37.1966C155.321 37.4161 155.613 37.5808 155.906 37.6906C156.198 37.8003 156.564 37.8553 157.003 37.8553Z" fill="white"/>
<path d="M171.483 41.6155C170.367 41.6155 169.315 41.5333 168.327 41.3686C167.357 41.2222 166.589 41.0301 166.021 40.7921V37.0867C166.661 37.3796 167.421 37.6082 168.299 37.7729C169.196 37.9376 169.956 38.02 170.576 38.02C171.236 38.02 171.73 38.0017 172.059 37.965C172.408 37.9285 172.58 37.7729 172.58 37.4985C172.58 37.1875 172.279 36.9496 171.675 36.7848C171.072 36.6201 170.312 36.3822 169.398 36.0712C168.207 35.6503 167.319 35.1564 166.734 34.589C166.149 34.0218 165.857 33.1985 165.857 32.1187C165.857 30.8197 166.369 29.8224 167.394 29.1271C168.418 28.4135 170.028 28.0566 172.223 28.0566C173.066 28.0566 173.935 28.1206 174.831 28.2487C175.727 28.3768 176.432 28.5232 176.945 28.6879V32.311C176.395 32.0731 175.792 31.8992 175.134 31.7895C174.493 31.6796 173.908 31.6248 173.377 31.6248C172.792 31.6248 172.269 31.6522 171.812 31.7071C171.354 31.7619 171.126 31.9175 171.126 32.1737C171.126 32.4664 171.383 32.6769 171.895 32.805C172.425 32.9331 173.13 33.1344 174.008 33.4088C174.997 33.7016 175.764 34.0218 176.314 34.3695C176.881 34.7172 177.275 35.1379 177.494 35.6321C177.731 36.1262 177.851 36.739 177.851 37.4711C177.851 38.7886 177.31 39.8132 176.231 40.5451C175.169 41.2587 173.587 41.6155 171.483 41.6155Z" fill="white"/>
<path d="M184.501 41.615C182.982 41.615 181.793 41.1851 180.933 40.325C180.074 39.465 179.644 38.2024 179.644 36.5373V28.3306H184.803V36.1256C184.803 37.26 185.38 37.8273 186.532 37.8273C186.953 37.8273 187.365 37.7359 187.768 37.5529C188.17 37.3699 188.49 37.1411 188.728 36.8667V28.3306H193.888V41.3405H189.058L188.921 40.3524C188.409 40.7184 187.776 41.0204 187.027 41.2582C186.295 41.4961 185.453 41.615 184.501 41.615Z" fill="white"/>
<path d="M196.346 41.3411V28.3311H201.121L201.258 29.374C201.826 28.9898 202.457 28.6788 203.152 28.4409C203.866 28.1847 204.644 28.0566 205.486 28.0566C206.326 28.0566 206.986 28.1755 207.461 28.4135C207.938 28.6512 208.322 28.9989 208.614 29.4563C209.199 29.0356 209.859 28.697 210.591 28.4409C211.34 28.1847 212.219 28.0566 213.226 28.0566C214.744 28.0566 215.86 28.4591 216.574 29.2642C217.288 30.0511 217.644 31.2588 217.644 32.8873V41.3411H212.566V33.4912C212.566 32.9056 212.448 32.494 212.21 32.256C211.973 31.9998 211.579 31.8718 211.029 31.8718C210.316 31.8718 209.73 32.128 209.274 32.6403C209.309 32.8782 209.328 33.107 209.328 33.3265C209.328 33.5277 209.328 33.7565 209.328 34.0127V41.3411H204.552V33.4088C204.552 32.8782 204.461 32.494 204.278 32.256C204.094 31.9998 203.747 31.8718 203.235 31.8718C202.887 31.8718 202.548 31.9633 202.219 32.1463C201.889 32.3293 201.596 32.5488 201.341 32.805V41.3411H196.346Z" fill="white"/>
<path d="M138.011 63.736C136.636 63.736 135.493 63.4783 134.581 62.9629C133.683 62.4342 133.01 61.7008 132.56 60.7625C132.11 59.8111 131.886 58.701 131.886 57.4323C131.886 56.0447 132.098 54.8354 132.52 53.8046C132.943 52.7739 133.603 51.9809 134.503 51.4258C135.402 50.8576 136.563 50.5735 137.991 50.5735C138.731 50.5735 139.398 50.6263 139.993 50.7321C140.601 50.8378 141.169 50.9831 141.699 51.1682V52.5955C141.169 52.3972 140.608 52.2452 140.013 52.1395C139.418 52.0206 138.791 51.9611 138.131 51.9611C136.98 51.9611 136.068 52.1791 135.395 52.6153C134.721 53.0513 134.238 53.679 133.947 54.4984C133.656 55.3178 133.511 56.2958 133.511 57.4323C133.511 59.0048 133.882 60.2207 134.621 61.0798C135.375 61.9256 136.558 62.3484 138.169 62.3484C138.764 62.3484 139.365 62.3021 139.973 62.2096C140.594 62.1171 141.169 61.9718 141.699 61.7735V63.2206C141.182 63.3792 140.621 63.5047 140.013 63.5973C139.418 63.6898 138.751 63.736 138.011 63.736Z" fill="white"/>
<path d="M148.373 63.7355C146.734 63.7355 145.538 63.3192 144.785 62.4867C144.045 61.6409 143.676 60.425 143.676 58.8392C143.676 57.2665 144.053 56.0573 144.805 55.2116C145.558 54.3658 146.749 53.9429 148.373 53.9429C149.999 53.9429 151.189 54.3658 151.941 55.2116C152.695 56.0573 153.071 57.2665 153.071 58.8392C153.071 60.425 152.702 61.6409 151.961 62.4867C151.222 63.3192 150.026 63.7355 148.373 63.7355ZM148.373 62.348C149.496 62.348 150.29 62.0703 150.752 61.5153C151.215 60.9471 151.446 60.0551 151.446 58.8392C151.446 57.6233 151.209 56.738 150.732 56.1829C150.27 55.6146 149.483 55.3304 148.373 55.3304C147.264 55.3304 146.47 55.6146 145.995 56.1829C145.533 56.738 145.301 57.6233 145.301 58.8392C145.301 60.0551 145.533 60.9471 145.995 61.5153C146.458 62.0703 147.25 62.348 148.373 62.348Z" fill="white"/>
<path d="M155.058 63.5377V62.1699H156.525V63.5377H155.058Z" fill="white"/>
<path fill-rule="evenodd" clip-rule="evenodd" d="M394.236 19.435C396.289 17.3823 399.617 17.3823 401.67 19.435C403.722 21.4879 403.722 24.8161 401.67 26.869L389.154 39.3845C385.561 34.5687 385.951 27.7197 390.325 23.3456L394.236 19.435Z" fill="#4F9E91"/>
<path fill-rule="evenodd" clip-rule="evenodd" d="M412.127 47.6719C414.181 49.7246 414.181 53.053 412.127 55.1057C410.076 57.1586 406.747 57.1586 404.694 55.1057L392.179 42.5904C396.994 38.9971 403.843 39.3873 408.217 43.7613L412.127 47.6719Z" fill="#EBE1C5"/>
<path fill-rule="evenodd" clip-rule="evenodd" d="M383.891 65.5645C381.838 67.6174 378.51 67.6174 376.457 65.5645C374.404 63.5117 374.404 60.1834 376.457 58.1306L388.972 45.6152C392.565 50.431 392.175 57.28 387.801 61.6539L383.891 65.5645Z" fill="#EBCC6E"/>
<path fill-rule="evenodd" clip-rule="evenodd" d="M365.999 37.3266C363.946 35.2738 363.946 31.9455 365.999 29.8927C368.051 27.8398 371.38 27.8398 373.433 29.8927L385.948 42.4082C381.132 46.0015 374.283 45.6111 369.909 41.2372L365.999 37.3266Z" fill="#ED834E"/>
<path fill-rule="evenodd" clip-rule="evenodd" d="M391.439 64.0316C394.466 60.6661 395.873 56.3597 395.659 52.1196L401.67 58.1303C401.685 58.1452 401.7 58.1602 401.715 58.1751V62.4663C401.715 65.3694 399.362 67.7228 396.458 67.7228C394.1 67.7228 392.105 66.1703 391.439 64.0316Z" fill="#ED834E"/>
<path fill-rule="evenodd" clip-rule="evenodd" d="M367.531 44.875C370.897 47.9021 375.203 49.3089 379.443 49.0955L373.433 55.1061C373.418 55.1211 373.403 55.1362 373.388 55.1511H369.097C366.194 55.1513 363.84 52.7977 363.84 49.8946C363.84 47.5367 365.393 45.5412 367.531 44.875Z" fill="#4F9E91"/>
<path fill-rule="evenodd" clip-rule="evenodd" d="M410.595 40.1249C407.23 37.0978 402.923 35.6909 398.683 35.9042L404.694 29.8937C404.709 29.8788 404.724 29.8637 404.739 29.8486H409.03C411.933 29.8486 414.287 32.2022 414.287 35.1053C414.287 37.4633 412.734 39.4586 410.595 40.1249Z" fill="#EBCC6E"/>
<path fill-rule="evenodd" clip-rule="evenodd" d="M386.688 20.9677C383.661 24.3331 382.254 28.6396 382.467 32.8797L376.457 26.8691C376.442 26.8541 376.427 26.8392 376.412 26.8243V22.5331C376.412 19.6299 378.765 17.2764 381.668 17.2764C384.026 17.2764 386.022 18.8291 386.688 20.9677Z" fill="#EBE1C5"/>
<path fill-rule="evenodd" clip-rule="evenodd" d="M381.668 13C376.403 13 372.135 17.2683 372.135 22.5334V24.3876C368.967 23.56 365.457 24.3872 362.975 26.8694C359.252 30.5925 359.252 36.6287 362.975 40.3517L364.286 41.6628C361.461 43.3174 359.563 46.3846 359.563 49.8949C359.563 55.16 363.832 59.4283 369.097 59.4283H370.951C370.123 62.5959 370.95 66.1064 373.433 68.5885C377.156 72.3115 383.192 72.3115 386.915 68.5885L390.825 64.678C394.275 61.2284 395.886 56.6363 395.659 52.1196L401.67 58.1303C405.393 61.8533 411.429 61.8533 415.152 58.1303C418.876 54.4072 418.876 48.371 415.152 44.6481L413.842 43.3372C416.666 41.6826 418.563 38.6154 418.563 35.1051C418.563 29.84 414.294 25.5717 409.03 25.5717H407.176C408.003 22.404 407.176 18.8935 404.694 16.4112C400.971 12.6882 394.935 12.6882 391.212 16.4112L387.301 20.3218C383.851 23.7715 382.24 28.3634 382.468 32.8801L376.457 26.8694C376.442 26.8545 376.427 26.8395 376.412 26.8246V22.5334C376.412 19.6303 378.765 17.2769 381.668 17.2769C384.026 17.2769 386.022 18.8294 386.688 20.9681C386.885 20.7486 387.09 20.5331 387.301 20.3218L389.901 17.7223C388.246 14.8972 385.179 13 381.668 13ZM404.739 29.8486C404.724 29.8635 404.709 29.8786 404.694 29.8935L398.683 35.904C402.924 35.6907 407.23 37.0975 410.595 40.1247C412.734 39.4584 414.287 37.463 414.287 35.1051C414.287 32.202 411.934 29.8486 409.03 29.8486H404.739ZM373.388 55.1514C373.403 55.1363 373.418 55.1213 373.433 55.1063L379.443 49.0957C375.203 49.3091 370.897 47.9022 367.532 44.8753C365.393 45.5416 363.84 47.5369 363.84 49.8949C363.84 52.798 366.194 55.1514 369.097 55.1514H373.388ZM367.368 44.7259C367.204 44.5752 367.044 44.4206 366.885 44.2622V44.2623C367.044 44.4208 367.204 44.5752 367.368 44.7259ZM396.458 72C392.948 72 389.881 70.1026 388.226 67.2776L390.825 64.678C391.037 64.4668 391.241 64.2513 391.439 64.0318C392.105 66.1704 394.1 67.7231 396.458 67.7231C399.361 67.7231 401.715 65.3697 401.715 62.4666V58.1754C402.947 59.3912 404.427 60.2035 405.992 60.6123V62.4666C405.992 67.7317 401.723 72 396.458 72ZM401.67 19.4353C399.617 17.3826 396.289 17.3826 394.236 19.4353L390.325 23.3459C385.951 27.72 385.561 34.569 389.154 39.3848L401.67 26.8693C403.723 24.8164 403.723 21.4882 401.67 19.4353ZM412.127 55.1062C414.181 53.0533 414.181 49.7251 412.127 47.6722L408.217 43.7616C403.843 39.3877 396.994 38.9974 392.178 42.5907L404.694 55.1062C406.747 57.159 410.076 57.159 412.127 55.1062ZM383.891 65.5644C381.838 67.6172 378.51 67.6172 376.457 65.5644C374.404 63.5115 374.404 60.1833 376.457 58.1304L388.972 45.6149C392.566 50.4307 392.175 57.2799 387.801 61.6538L383.891 65.5644ZM365.999 29.8935C363.946 31.9464 363.946 35.2746 365.999 37.3275L369.909 41.2381C374.283 45.612 381.132 46.0023 385.948 42.409L373.433 29.8935C371.38 27.8408 368.052 27.8408 365.999 29.8935Z" fill="#3D3A2C"/>
<path d="M289 32.2781H293.675V46.8057H301.705V50.7414H289V32.2781Z" fill="white"/>
<path d="M310.194 51.1376C308.627 51.1376 307.253 50.8558 306.073 50.2923C304.893 49.7112 303.978 48.9187 303.326 47.9151C302.692 46.8937 302.375 45.7228 302.375 44.402C302.375 43.0813 302.692 41.9191 303.326 40.9155C303.978 39.8941 304.893 39.1016 306.073 38.5382C307.253 37.957 308.627 37.6665 310.194 37.6665C311.761 37.6665 313.134 37.957 314.314 38.5382C315.494 39.1016 316.401 39.8941 317.035 40.9155C317.686 41.9191 318.012 43.0813 318.012 44.402C318.012 45.7228 317.686 46.8937 317.035 47.9151C316.401 48.9187 315.494 49.7112 314.314 50.2923C313.134 50.8558 311.761 51.1376 310.194 51.1376ZM310.194 47.5188C311.127 47.5188 311.867 47.2459 312.412 46.7001C312.976 46.1365 313.258 45.3706 313.258 44.402C313.258 43.4335 312.976 42.6763 312.412 42.1305C311.867 41.5669 311.127 41.2853 310.194 41.2853C309.26 41.2853 308.512 41.5669 307.949 42.1305C307.403 42.6763 307.13 43.4335 307.13 44.402C307.13 45.3706 307.403 46.1365 307.949 46.7001C308.512 47.2459 309.26 47.5188 310.194 47.5188Z" fill="white"/>
<path d="M326.744 56.8166C325.899 56.8166 325.045 56.7373 324.182 56.5789C323.337 56.4203 322.606 56.2091 321.99 55.9449V52.7224C323.381 53.321 324.966 53.6204 326.744 53.6204C328.03 53.6204 328.954 53.3562 329.518 52.828C330.099 52.2998 330.389 51.525 330.389 50.5036V49.7376C329.879 50.1779 329.245 50.5212 328.488 50.7678C327.748 51.0144 326.955 51.1376 326.11 51.1376C324.772 51.1376 323.592 50.8558 322.571 50.2923C321.55 49.7288 320.748 48.9363 320.167 47.9151C319.604 46.8937 319.322 45.7228 319.322 44.402C319.322 43.0637 319.604 41.8839 320.167 40.8626C320.731 39.8412 321.523 39.0576 322.544 38.5117C323.566 37.9483 324.737 37.6665 326.057 37.6665C327.871 37.6665 329.368 38.2212 330.548 39.3306V38.0626H335.038V49.8697C335.038 52.0708 334.36 53.779 333.004 54.994C331.666 56.2091 329.579 56.8166 326.744 56.8166ZM327.272 47.5453C327.994 47.5453 328.637 47.3604 329.201 46.9906C329.764 46.6208 330.16 46.1278 330.389 45.5114V43.2927C330.143 42.6763 329.738 42.192 329.174 41.8398C328.611 41.4702 327.977 41.2853 327.272 41.2853C326.322 41.2853 325.556 41.5669 324.975 42.1305C324.393 42.6763 324.103 43.4246 324.103 44.3756C324.103 45.3441 324.393 46.1189 324.975 46.7001C325.556 47.2635 326.322 47.5453 327.272 47.5453Z" fill="white"/>
<path d="M344.036 51.1376C342.469 51.1376 341.095 50.8558 339.916 50.2923C338.736 49.7112 337.82 48.9187 337.169 47.9151C336.535 46.8937 336.218 45.7228 336.218 44.402C336.218 43.0813 336.535 41.9191 337.169 40.9155C337.82 39.8941 338.736 39.1016 339.916 38.5382C341.095 37.957 342.469 37.6665 344.036 37.6665C345.603 37.6665 346.977 37.957 348.157 38.5382C349.336 39.1016 350.243 39.8941 350.877 40.9155C351.529 41.9191 351.855 43.0813 351.855 44.402C351.855 45.7228 351.529 46.8937 350.877 47.9151C350.243 48.9187 349.336 49.7112 348.157 50.2923C346.977 50.8558 345.603 51.1376 344.036 51.1376ZM344.036 47.5188C344.969 47.5188 345.709 47.2459 346.255 46.7001C346.818 46.1365 347.1 45.3706 347.1 44.402C347.1 43.4335 346.818 42.6763 346.255 42.1305C345.709 41.5669 344.969 41.2853 344.036 41.2853C343.103 41.2853 342.354 41.5669 341.791 42.1305C341.245 42.6763 340.972 43.4335 340.972 44.402C340.972 45.3706 341.245 46.1365 341.791 46.7001C342.354 47.2459 343.103 47.5188 344.036 47.5188Z" fill="white"/>
<path d="M426.418 32.2781H431.094V50.7414H426.418V32.2781Z" fill="white"/>
<path d="M433.461 38.0626H437.952V39.3306C439.131 38.2212 440.627 37.6665 442.441 37.6665C443.762 37.6665 444.933 37.9483 445.954 38.5117C446.976 39.0576 447.768 39.8412 448.331 40.8626C448.895 41.8663 449.177 43.0374 449.177 44.3756C449.177 45.6963 448.895 46.8761 448.331 47.9151C447.768 48.9363 446.976 49.7288 445.954 50.2923C444.951 50.8558 443.78 51.1376 442.441 51.1376C441.596 51.1376 440.786 51.0055 440.012 50.7413C439.255 50.4949 438.62 50.1514 438.11 49.7112V56.5259H433.461V38.0626ZM441.227 47.5188C442.178 47.5188 442.944 47.2372 443.524 46.6736C444.105 46.1102 444.397 45.3441 444.397 44.3756C444.397 43.407 444.105 42.65 443.524 42.104C442.944 41.5406 442.178 41.2588 441.227 41.2588C440.522 41.2588 439.888 41.4437 439.324 41.8135C438.761 42.1657 438.357 42.65 438.11 43.2662V45.5114C438.357 46.1278 438.761 46.6208 439.324 46.9906C439.888 47.3428 440.522 47.5188 441.227 47.5188Z" fill="white"/>
<path d="M456.107 51.1376C455.087 51.1376 454.022 51.032 452.912 50.8206C451.803 50.6269 450.921 50.3452 450.27 49.9754V46.568C450.992 46.9906 451.855 47.3428 452.859 47.6246C453.88 47.8886 454.813 48.0207 455.659 48.0207C456.274 48.0207 456.724 47.9766 457.005 47.8886C457.288 47.8006 457.428 47.6246 457.428 47.3604C457.428 47.149 457.332 46.9817 457.138 46.8585C456.962 46.7177 456.627 46.5767 456.134 46.4359C455.659 46.2775 455.104 46.1102 454.47 45.934C453.396 45.617 452.551 45.2913 451.934 44.9567C451.318 44.6221 450.861 44.1995 450.56 43.6888C450.261 43.1782 450.112 42.5355 450.112 41.7607C450.112 40.3871 450.649 39.3658 451.723 38.6966C452.815 38.0098 454.303 37.6665 456.187 37.6665C457.103 37.6665 458.063 37.7634 459.066 37.957C460.088 38.1508 460.853 38.4061 461.364 38.7231V42.0777C460.836 41.7255 460.131 41.4348 459.251 41.206C458.388 40.977 457.578 40.8626 456.82 40.8626C456.223 40.8626 455.755 40.9242 455.421 41.0474C455.087 41.1532 454.92 41.3468 454.92 41.6286C454.92 41.8928 455.087 42.0953 455.421 42.2361C455.755 42.3769 456.354 42.5531 457.217 42.7643C457.78 42.9053 458.018 42.9668 457.93 42.9492C459.057 43.2486 459.928 43.5832 460.545 43.953C461.162 44.3228 461.592 44.763 461.839 45.2737C462.104 45.7667 462.236 46.4007 462.236 47.1755C462.236 48.3905 461.708 49.359 460.651 50.081C459.612 50.7854 458.097 51.1376 456.107 51.1376Z" fill="white"/>
<path d="M469.176 51.1377C467.434 51.1377 466.122 50.6534 465.242 49.6849C464.379 48.7163 463.947 47.4398 463.947 45.855V38.0627H468.596V45.3266C468.596 46.7882 469.256 47.5189 470.577 47.5189C471.176 47.5189 471.722 47.3781 472.215 47.0963C472.707 46.8145 473.112 46.4008 473.429 45.855V38.0627H478.078V50.7414H473.589V49.3679C473.043 49.949 472.382 50.3892 471.607 50.6886C470.833 50.988 470.022 51.1377 469.176 51.1377Z" fill="white"/>
<path d="M480.458 38.0626H484.764V39.4362C485.292 38.8728 485.9 38.4413 486.587 38.1419C487.273 37.8249 488.004 37.6665 488.779 37.6665C489.73 37.6665 490.487 37.8073 491.051 38.0891C491.632 38.3709 492.098 38.7935 492.45 39.357C492.978 38.8287 493.622 38.4148 494.379 38.1156C495.137 37.8162 495.903 37.6665 496.677 37.6665C498.35 37.6665 499.539 38.098 500.243 38.9608C500.947 39.806 501.299 41.0298 501.299 42.6322V50.7413H496.861V43.2927C496.861 42.5883 496.73 42.0777 496.465 41.7607C496.202 41.4437 495.761 41.2853 495.146 41.2853C494.353 41.2853 493.709 41.5669 493.217 42.1305C493.234 42.4297 493.243 42.8877 493.243 43.5039V50.7413H488.806V43.1078C488.806 42.4562 488.692 41.9895 488.462 41.7079C488.233 41.4261 487.828 41.2853 487.248 41.2853C486.349 41.2853 485.575 41.787 484.923 42.7908V50.7413H480.458V38.0626Z" fill="white"/>
<path d="M602.5 0C598.626 0 594.79 0.763123 591.211 2.24554C587.632 3.72813 584.38 5.90101 581.64 8.6403C578.901 11.3797 576.728 14.6317 575.246 18.2108C573.763 21.7899 573 25.6261 573 29.5C573 33.3739 573.763 37.2101 575.246 40.7892C576.728 44.3683 578.901 47.6203 581.64 50.3597C584.38 53.099 587.632 55.2719 591.211 56.7545C594.79 58.2369 598.626 59 602.5 59V44.25C600.563 44.25 598.645 43.8685 596.855 43.1271C595.066 42.3859 593.44 41.2995 592.07 39.9298C590.701 38.5602 589.614 36.9342 588.873 35.1446C588.131 33.3551 587.75 31.4371 587.75 29.5C587.75 27.5629 588.131 25.6449 588.873 23.8554C589.614 22.0658 590.701 20.4398 592.07 19.0702C593.44 17.7005 595.066 16.6141 596.855 15.8729C598.645 15.1315 600.563 14.75 602.5 14.75V0Z" fill="#0F52FF"/>
<path d="M602.5 39.3334C607.931 39.3334 612.333 34.9309 612.333 29.5001C612.333 24.0693 607.931 19.6667 602.5 19.6667C597.069 19.6667 592.667 24.0693 592.667 29.5001C592.667 34.9309 597.069 39.3334 602.5 39.3334Z" fill="#0F52FF"/>
<path d="M573 29.5C573 33.3739 573.763 37.2101 575.246 40.7892C576.728 44.3683 578.901 47.6203 581.64 50.3597C584.38 53.099 587.632 55.2719 591.211 56.7545C594.79 58.2369 598.626 59 602.5 59C606.374 59 610.21 58.2369 613.789 56.7545C617.368 55.2719 620.62 53.099 623.36 50.3597C626.099 47.6203 628.272 44.3683 629.754 40.7892C631.237 37.2101 632 33.3739 632 29.5H617.25C617.25 31.4371 616.869 33.3551 616.127 35.1446C615.386 36.9342 614.299 38.5602 612.93 39.9298C611.56 41.2995 609.934 42.3859 608.145 43.1271C606.355 43.8685 604.437 44.25 602.5 44.25C600.563 44.25 598.645 43.8685 596.855 43.1271C595.066 42.3859 593.44 41.2995 592.07 39.9298C590.701 38.5602 589.614 36.9342 588.873 35.1446C588.131 33.3551 587.75 31.4371 587.75 29.5H573Z" fill="#5BD0F4"/>
<path d="M612.333 29.5002C612.333 26.8922 611.297 24.3911 609.453 22.547C607.609 20.7028 605.108 19.6667 602.5 19.6667C599.892 19.6667 597.391 20.7028 595.547 22.547C593.703 24.3911 592.667 26.8922 592.667 29.5002H602.5H612.333Z" fill="#5BD0F4"/>
<path d="M647.407 18.4163H643.743V38.7713H647.407V18.4163Z" fill="#0F52FF"/>
<path d="M649.799 31.5605C649.799 36.2712 653.056 39.1791 657.36 39.1791C661.663 39.1791 664.92 36.2712 664.92 31.5605C664.92 26.8498 661.663 23.9419 657.36 23.9419C653.056 23.9419 649.799 26.8498 649.799 31.5605ZM653.463 31.5605C653.463 28.7689 655.092 27.1405 657.36 27.1405C659.628 27.1405 661.256 28.7689 661.256 31.5605C661.256 34.352 659.628 35.9804 657.36 35.9804C655.092 35.9804 653.463 34.352 653.463 31.5605Z" fill="#0F52FF"/>
<path d="M678.013 24.349V26.2972H677.722C676.85 25.0469 675.454 23.9419 672.953 23.9419C669.522 23.9419 666.44 26.8498 666.44 31.3279C666.44 35.806 669.522 38.7138 672.953 38.7138C675.454 38.7138 676.85 37.5797 677.664 36.4457H677.955V37.8415C677.955 40.633 676.326 41.9125 673.942 41.9125C671.558 41.9125 670.336 40.633 669.842 38.9754L666.556 40.4004C667.312 42.5812 669.522 44.9948 674 44.9948C678.595 44.9948 681.619 42.5812 681.619 37.9286V24.349H678.013ZM674.058 35.5733C671.79 35.5733 670.104 33.9449 670.104 31.3279C670.104 28.7108 671.79 27.0824 674.058 27.0824C676.326 27.0824 678.013 28.7108 678.013 31.3279C678.013 33.9449 676.326 35.5733 674.058 35.5733Z" fill="#0F52FF"/>
<path d="M683.989 31.5605C683.989 36.2712 687.246 39.1791 691.55 39.1791C695.853 39.1791 699.11 36.2712 699.11 31.5605C699.11 26.8498 695.853 23.9419 691.55 23.9419C687.246 23.9419 683.989 26.8498 683.989 31.5605ZM687.653 31.5605C687.653 28.7689 689.282 27.1405 691.55 27.1405C693.818 27.1405 695.446 28.7689 695.446 31.5605C695.446 34.352 693.818 35.9804 691.55 35.9804C689.282 35.9804 687.653 34.352 687.653 31.5605Z" fill="#0F52FF"/>
<path d="M701.986 20.1612C701.986 21.6442 703.121 22.6619 704.575 22.6619C706.028 22.6619 707.163 21.6442 707.163 20.1612C707.163 18.6782 706.028 17.6604 704.575 17.6604C703.121 17.6604 701.986 18.6782 701.986 20.1612ZM706.406 24.3485H702.743V38.7714H706.406V24.3485Z" fill="#5BD0F4"/>
<path d="M709.671 44.5877H713.336V36.9109H713.626C714.44 38.0741 715.836 39.1791 718.337 39.1791C721.768 39.1791 724.851 36.2712 724.851 31.5605C724.851 26.8498 721.768 23.9419 718.337 23.9419C715.836 23.9419 714.44 25.0469 713.568 26.2973H713.277V24.349H709.671V44.5877ZM717.231 36.0386C714.964 36.0386 713.277 34.4102 713.277 31.5605C713.277 28.7108 714.964 27.0824 717.231 27.0824C719.5 27.0824 721.186 28.7108 721.186 31.5605C721.186 34.4102 719.5 36.0386 717.231 36.0386Z" fill="#5BD0F4"/>
<path d="M726.989 28.391C726.989 31.2407 729.372 32.2875 732.396 32.8691L733.153 33.0144C734.955 33.3634 735.769 33.7996 735.769 34.7301C735.769 35.6606 734.955 36.3875 733.27 36.3875C731.582 36.3875 730.217 35.6896 729.837 33.596L726.464 34.4683C726.96 37.4925 729.489 39.1791 733.27 39.1791C736.933 39.1791 739.318 37.4635 739.318 34.4393C739.318 31.415 736.875 30.601 733.619 29.9612L732.862 29.8158C731.35 29.525 730.535 29.1179 730.535 28.1584C730.535 27.286 731.292 26.7334 732.688 26.7334C734.084 26.7334 735.072 27.315 735.421 28.8852L738.736 27.8676C738.038 25.5413 735.916 23.9419 732.688 23.9419C729.256 23.9419 726.989 25.5413 726.989 28.391Z" fill="#5BD0F4"/>
<path d="M755.775 38.7714V24.3484H752.112V31.7925C752.112 34.4677 750.804 36.038 748.564 36.038C746.586 36.038 745.482 34.9621 745.482 32.7812V24.3484H741.817V32.9556C741.817 36.5324 744.058 39.004 747.431 39.004C750.076 39.004 751.298 37.8408 751.879 36.6195H752.169V38.7714H755.775Z" fill="#5BD0F4"/>
<path d="M759.025 24.3486V38.7716H762.69V30.1643C762.69 28.187 763.621 27.082 765.306 27.082C766.761 27.082 767.633 27.8962 767.633 29.4664V38.7716H771.297V30.1643C771.297 28.187 772.228 27.082 773.914 27.082C775.368 27.082 776.24 27.8962 776.24 29.4664V38.7716H779.905V29.292C779.905 25.8025 777.752 24.116 775.077 24.116C772.722 24.116 771.646 25.1628 770.948 26.3841H770.657C769.988 25.0175 768.796 24.116 766.702 24.116C764.609 24.116 763.474 25.0465 762.923 26.1515H762.631V24.3486H759.025Z" fill="#5BD0F4"/>
<path d="M893.818 61.8306L854.339 34.5977C850.338 31.8381 851.698 26.0922 856.687 24.741L898.646 13.3527C899.535 13.032 900.488 12.9279 901.425 13.049C902.362 13.1702 903.257 13.5131 904.035 14.0493C904.813 14.5855 905.452 15.2995 905.898 16.1321C906.345 16.9648 906.587 17.8919 906.604 18.8367L904.117 57.4557C903.822 62.0397 897.819 64.5902 893.818 61.8306Z" fill="#E9327C"/>
<path d="M881.296 68.5532L858.038 23.0682C857.506 22.0277 857.272 20.8605 857.362 19.6954C857.451 18.5303 857.861 17.4126 858.545 16.4655C859.23 15.5184 860.162 14.7787 861.241 14.328C862.319 13.8774 863.5 13.7332 864.655 13.9114L907.759 20.5639C908.751 20.7171 909.693 21.1036 910.507 21.6918C911.321 22.2799 911.984 23.0528 912.441 23.9469C912.898 24.8411 913.136 25.8309 913.136 26.8351C913.136 27.8392 912.897 28.829 912.44 29.723L892.583 68.5554C892.05 69.593 891.241 70.4635 890.246 71.0712C889.25 71.6789 888.106 72.0003 886.939 72.0001C885.773 71.9999 884.629 71.678 883.633 71.0699C882.638 70.4618 881.829 69.591 881.296 68.5532Z" fill="#1DACE3"/>
<path d="M906.498 20.3684L885.011 17.052L858.63 24.2151L869.16 44.8153L893.818 61.8306C894.362 62.2018 894.96 62.4861 895.592 62.6735L904.958 44.3575L906.498 20.3684Z" fill="#3A68B8"/>
<path d="M1015.34 25.6849C1015.34 24.8862 1015.57 24.1055 1016.02 23.4414C1016.46 22.7773 1017.09 22.2598 1017.83 21.9541C1018.57 21.6485 1019.38 21.5685 1020.16 21.7243C1020.94 21.8801 1021.66 22.2647 1022.23 22.8295C1022.79 23.3942 1023.18 24.1138 1023.33 24.8971C1023.49 25.6804 1023.41 26.4924 1023.1 27.2302C1022.8 27.9681 1022.28 28.5988 1021.62 29.0425C1020.95 29.4862 1020.17 29.7231 1019.37 29.7231C1018.31 29.7122 1017.28 29.2832 1016.53 28.5283C1015.77 27.7733 1015.35 26.7525 1015.34 25.6849ZM1016.01 31.6971H1022.74V54.1304H1016.01V31.6971Z" fill="white"/>
<path d="M1051.81 42.9138C1051.89 44.3966 1051.67 45.8802 1051.18 47.2794C1050.68 48.6785 1049.91 49.9655 1048.91 51.0664C1047.92 52.1673 1046.71 53.0604 1045.37 53.6942C1044.03 54.3281 1042.57 54.6902 1041.09 54.7598C1039.84 54.8277 1038.59 54.6173 1037.44 54.1438C1036.28 53.6704 1035.25 52.9457 1034.4 52.0222V63.1046H1027.67V31.6971H1034.4V33.8053C1035.25 32.8823 1036.28 32.158 1037.44 31.6849C1038.59 31.2118 1039.84 31.0017 1041.09 31.0699C1042.57 31.1392 1044.03 31.5011 1045.37 32.1347C1046.71 32.7683 1047.92 33.6612 1048.91 34.7619C1049.91 35.8627 1050.68 37.1495 1051.18 38.5486C1051.67 39.9476 1051.89 41.4311 1051.81 42.9138ZM1045.08 42.9138C1045.05 41.8635 1044.72 40.8443 1044.12 39.9837C1043.51 39.1232 1042.67 38.4596 1041.69 38.0759C1040.71 37.6923 1039.64 37.6056 1038.62 37.8267C1037.59 38.0479 1036.65 38.5671 1035.92 39.3193C1035.18 40.0716 1034.69 41.0234 1034.49 42.0558C1034.3 43.0881 1034.41 44.1551 1034.82 45.1232C1035.23 46.0913 1035.91 46.9175 1036.79 47.4984C1037.66 48.0793 1038.69 48.3891 1039.74 48.389C1040.46 48.4215 1041.18 48.301 1041.86 48.0355C1042.53 47.77 1043.13 47.3654 1043.64 46.8483C1044.14 46.3312 1044.53 45.7134 1044.78 45.0353C1045.03 44.3572 1045.13 43.6342 1045.08 42.9138Z" fill="white"/>
<path d="M1072.58 47.3966C1072.58 52.5571 1068.1 54.7555 1063.25 54.7555C1061.29 54.9327 1059.33 54.5183 1057.61 53.5662C1055.89 52.614 1054.49 51.1678 1053.6 49.4146L1059.44 46.096C1059.67 46.9064 1060.18 47.6108 1060.88 48.0915C1061.57 48.5722 1062.41 48.8 1063.25 48.7368C1064.87 48.7368 1065.67 48.2416 1065.67 47.346C1065.67 44.8768 1054.63 46.1796 1054.63 38.4158C1054.63 33.5259 1058.76 31.059 1063.44 31.059C1065.19 31.004 1066.93 31.4202 1068.47 32.2643C1070 33.1085 1071.29 34.3497 1072.18 35.8586L1066.44 38.9549C1066.19 38.366 1065.77 37.8642 1065.24 37.5119C1064.7 37.1597 1064.08 36.9727 1063.44 36.9743C1062.27 36.9743 1061.55 37.4145 1061.55 38.2309C1061.55 40.8057 1072.58 39.1002 1072.58 47.3966Z" fill="white"/>
<path d="M1097.18 31.6968V54.1301H1090.45V52.0175C1089.67 52.9481 1088.69 53.6814 1087.57 54.1572C1086.45 54.633 1085.24 54.8379 1084.03 54.7551C1079.5 54.7551 1075.64 51.5245 1075.64 45.4662V31.6968H1082.37V44.4847C1082.32 45.0194 1082.38 45.56 1082.55 46.0688C1082.72 46.5777 1083.01 47.0426 1083.38 47.4312C1083.75 47.8198 1084.2 48.1227 1084.7 48.3188C1085.2 48.515 1085.74 48.5996 1086.28 48.5669C1088.74 48.5669 1090.46 47.1321 1090.46 43.9455V31.6968H1097.18Z" fill="white"/>
<path d="M1135.75 40.3538V54.1298H1129.02V40.9391C1129.02 38.6967 1127.94 37.2597 1125.79 37.2597C1123.55 37.2597 1122.29 38.8309 1122.29 41.4783V54.1298H1115.56V40.9391C1115.56 38.6967 1114.48 37.2597 1112.33 37.2597C1110.09 37.2597 1108.83 38.8309 1108.83 41.4783V54.1298H1102.1V31.6965H1108.84V33.7518C1109.54 32.8366 1110.46 32.1108 1111.51 31.6406C1112.56 31.1705 1113.71 30.971 1114.85 31.0605C1116.01 31.0041 1117.15 31.2472 1118.18 31.7659C1119.21 32.2846 1120.09 33.0613 1120.73 34.0203C1121.48 33.0169 1122.47 32.2191 1123.6 31.7014C1124.74 31.1838 1125.99 30.9633 1127.24 31.0605C1132.39 31.0693 1135.75 34.7465 1135.75 40.3538Z" fill="white"/>
<path d="M1141.45 31.558C1144.21 31.558 1146.45 29.3215 1146.45 26.5626C1146.45 23.8037 1144.21 21.5671 1141.45 21.5671C1138.69 21.5671 1136.46 23.8037 1136.46 26.5626C1136.46 29.3215 1138.69 31.558 1141.45 31.558Z" fill="white"/>
<path d="M923.454 21.3782H930.186V54.1303H923.454V21.3782ZM933.997 42.9136C933.99 40.5617 934.681 38.2605 935.982 36.3014C937.283 34.3422 939.137 32.8133 941.307 31.9081C943.478 31.0029 945.869 30.7623 948.176 31.2166C950.484 31.6709 952.605 32.7997 954.27 34.4601C955.936 36.1205 957.072 38.2379 957.533 40.5441C957.995 42.8503 957.762 45.2415 956.863 47.4151C955.965 49.5887 954.442 51.4469 952.487 52.7543C950.532 54.0618 948.233 54.7597 945.881 54.7597C944.319 54.7764 942.769 54.4817 941.322 53.8927C939.875 53.3038 938.56 52.4324 937.454 51.3296C936.348 50.2267 935.472 48.9145 934.879 47.4695C934.285 46.0245 933.986 44.4757 933.997 42.9136ZM951.048 42.9136C951.022 41.8991 950.697 40.9149 950.114 40.0841C949.531 39.2533 948.716 38.6128 947.771 38.2427C946.826 37.8726 945.793 37.7894 944.801 38.0034C943.809 38.2175 942.902 38.7192 942.194 39.446C941.485 40.1728 941.007 41.0923 940.819 42.0895C940.63 43.0867 940.74 44.1173 941.134 45.0525C941.528 45.9876 942.189 46.7858 943.035 47.3471C943.88 47.9085 944.873 48.208 945.887 48.2084C946.582 48.2282 947.274 48.1038 947.918 47.843C948.563 47.5823 949.146 47.1909 949.632 46.6934C950.118 46.196 950.495 45.6033 950.74 44.9527C950.985 44.3022 951.093 43.6079 951.057 42.9136H951.048ZM984.606 31.6904V53.0036C984.606 60.5407 978.728 63.7251 972.762 63.7251C970.662 63.8836 968.559 63.4609 966.683 62.5032C964.807 61.5456 963.231 60.09 962.128 58.2961L967.87 54.9753C968.333 55.9116 969.071 56.6841 969.986 57.1894C970.9 57.6948 971.947 57.9089 972.986 57.8032C973.649 57.8937 974.325 57.8342 974.962 57.629C975.599 57.4237 976.182 57.078 976.668 56.6174C977.154 56.1567 977.53 55.5928 977.769 54.9674C978.008 54.3419 978.103 53.6708 978.048 53.0036V50.9394C977.259 51.9034 976.256 52.6693 975.118 53.1756C973.981 53.682 972.74 53.9147 971.496 53.8552C968.535 53.7632 965.726 52.5222 963.664 50.3951C961.602 48.268 960.449 45.4217 960.449 42.4592C960.449 39.4967 961.602 36.6504 963.664 34.5233C965.726 32.3962 968.535 31.1552 971.496 31.0632C972.74 31.0037 973.981 31.2364 975.118 31.7428C976.256 32.2491 977.259 33.015 978.048 33.979V31.6904H984.606ZM978.056 42.4581C978.101 41.3746 977.82 40.3026 977.25 39.3799C976.68 38.4572 975.848 37.726 974.859 37.2804C973.87 36.8348 972.771 36.6951 971.702 36.8792C970.634 37.0633 969.645 37.5629 968.862 38.3137C968.08 39.0645 967.54 40.0322 967.311 41.0923C967.083 42.1525 967.178 43.2566 967.582 44.2628C967.986 45.2691 968.682 46.1313 969.581 46.7387C970.479 47.3461 971.539 47.6709 972.623 47.6714C973.33 47.7211 974.04 47.6223 974.706 47.3813C975.373 47.1403 975.982 46.7624 976.493 46.272C977.005 45.7816 977.409 45.1894 977.678 44.5337C977.947 43.878 978.076 43.1732 978.056 42.4647V42.4581ZM988.417 42.8982C988.41 40.5463 989.1 38.2451 990.402 36.286C991.703 34.3268 993.556 32.7979 995.727 31.8927C997.898 30.9875 1000.29 30.7469 1002.6 31.2012C1004.9 31.6554 1007.02 32.7843 1008.69 34.4447C1010.36 36.1051 1011.49 38.2225 1011.95 40.5287C1012.41 42.8349 1012.18 45.2261 1011.28 47.3997C1010.38 49.5733 1008.86 51.4315 1006.91 52.7389C1004.95 54.0463 1002.65 54.7443 1000.3 54.7443C998.74 54.7609 997.191 54.4667 995.745 53.8787C994.3 53.2908 992.985 52.4208 991.879 51.3196C990.773 50.2184 989.897 48.908 989.303 47.4648C988.708 46.0215 988.407 44.4744 988.417 42.9136V42.8982ZM1005.47 42.8982C1005.44 41.8831 1005.12 40.8981 1004.53 40.0666C1003.95 39.2351 1003.14 38.594 1002.19 38.2235C1001.24 37.853 1000.21 37.7695 999.218 37.9836C998.226 38.1976 997.318 38.6996 996.609 39.4268C995.901 40.1541 995.422 41.0742 995.234 42.072C995.045 43.0698 995.155 44.1011 995.55 45.0368C995.944 45.9724 996.606 46.7709 997.452 47.3323C998.299 47.8937 999.292 48.1931 1000.31 48.193C1001 48.2114 1001.69 48.0865 1002.33 47.8261C1002.97 47.5658 1003.56 47.1756 1004.04 46.6799C1004.52 46.1843 1004.9 45.5939 1005.15 44.9458C1005.39 44.2977 1005.5 43.6059 1005.47 42.9136V42.8982Z" fill="white"/>
</svg>
