<svg width="17" height="17" viewBox="0 0 17 17" fill="none" xmlns="http://www.w3.org/2000/svg">
<g id="Footer &#226;&#134;&#146; Img &#226;&#134;&#146; SVG" clip-path="url(#clip0_1_169)">
<path id="Vector" fill-rule="evenodd" clip-rule="evenodd" d="M11.2668 5.86312L11.0038 6.52694L9.83974 9.46529L9.26866 10.9068L7.83333 14.5298H9.60751L10.335 12.5624H13.9217L14.662 14.5298H16.5L13.0665 5.86312H11.3278H11.2668ZM11.1186 10.4646L10.8839 11.093H11.6036H13.3856L12.1348 7.74339L11.1186 10.4646ZM10.0272 5.37203C10.0539 5.30459 10.0857 5.24024 10.1221 5.17933H6.91909V2.52979H5.426V5.17933H1.0408V6.52694H4.81466C3.85062 8.31993 2.25173 10.0444 0.5 10.9581C0.829184 11.2436 1.3112 11.7689 1.54633 12.1229C3.05118 11.2093 4.40318 9.75891 5.426 8.10295V13.1965H6.91909V8.04585C7.31951 8.68234 7.76748 9.29147 8.2521 9.85271L8.81996 8.41934C8.30191 7.82031 7.84631 7.17677 7.4834 6.52694H9.56968L10.0272 5.37203Z" fill="white"/>
</g>
<defs>
<clipPath id="clip0_1_169">
<rect width="16" height="16" fill="white" transform="translate(0.5 0.529785)"/>
</clipPath>
</defs>
</svg>
