<svg width="97" height="96" viewBox="0 0 97 96" fill="none" xmlns="http://www.w3.org/2000/svg">
<g id="SVG" clip-path="url(#clip0_1_106)">
<path id="Vector" d="M48.31 95.213C74.82 95.213 96.31 91.338 96.31 86.557C96.31 81.777 74.82 77.902 48.31 77.902C21.8 77.902 0.309998 81.777 0.309998 86.557C0.309998 91.337 21.8 95.213 48.31 95.213Z" fill="url(#paint0_radial_1_106)"/>
<path id="Vector_2" d="M48.31 77.115C74.82 77.115 96.31 60.028 96.31 38.951C96.31 17.873 74.82 0.786987 48.31 0.786987C21.8 0.786987 0.309998 17.874 0.309998 38.95C0.309998 60.026 21.8 77.115 48.31 77.115Z" fill="url(#paint1_radial_1_106)"/>
<path id="Vector_3" fill-rule="evenodd" clip-rule="evenodd" d="M75.686 75.624C75.8618 75.1797 75.8986 74.6925 75.7916 74.2268C75.6845 73.7612 75.4387 73.339 75.0865 73.0161C74.7343 72.6932 74.2924 72.4848 73.8192 72.4184C73.346 72.3521 72.8638 72.431 72.4364 72.6446C72.0091 72.8582 71.6566 73.1965 71.4256 73.6148C71.1946 74.0331 71.0961 74.5116 71.143 74.9871C71.1898 75.4626 71.3799 75.9127 71.6881 76.2778C71.9963 76.6429 72.4081 76.9059 72.869 77.032C72.807 77.189 72.762 77.352 72.735 77.518C72.0115 77.9343 71.4828 78.6209 71.2651 79.4267C71.0474 80.2326 71.1585 81.0919 71.574 81.816C71.7798 82.1745 72.0542 82.4889 72.3816 82.7413C72.7089 82.9937 73.0828 83.1791 73.4819 83.287C73.881 83.3948 74.2974 83.4229 74.7073 83.3697C75.1172 83.3165 75.5127 83.1831 75.871 82.977C75.9325 83.5185 76.1335 84.0348 76.4545 84.4753C76.7754 84.9159 77.2052 85.2655 77.7018 85.4901C78.1984 85.7147 78.7448 85.8065 79.2876 85.7565C79.8303 85.7065 80.3507 85.5165 80.798 85.205C80.9489 85.5229 81.169 85.803 81.4422 86.0248C81.7153 86.2466 82.0347 86.4045 82.3767 86.487C82.7188 86.5695 83.075 86.5744 83.4193 86.5015C83.7635 86.4285 84.0871 86.2795 84.3663 86.0653C84.6455 85.8511 84.8732 85.5772 85.0329 85.2637C85.1926 84.9501 85.2801 84.6048 85.2891 84.253C85.2981 83.9012 85.2283 83.5519 85.0849 83.2306C84.9414 82.9093 84.7279 82.6241 84.46 82.396C85.0069 81.7977 85.302 81.0116 85.2838 80.2012C85.2656 79.3909 84.9355 78.6188 84.3623 78.0457C83.7891 77.4726 83.0169 77.1427 82.2065 77.1247C81.3962 77.1067 80.6101 77.4019 80.012 77.949C79.6933 77.5715 79.2641 77.3038 78.7849 77.1838C78.3057 77.0637 77.801 77.0974 77.342 77.28C77.2335 76.8839 77.0237 76.523 76.7334 76.2326C76.443 75.9422 76.082 75.7325 75.686 75.624ZM24.703 77.114C24.703 77.424 24.659 77.733 24.569 78.029C25.1717 78.1796 25.735 78.4582 26.2204 78.8458C26.7059 79.2335 27.1022 79.7211 27.3825 80.2755C27.6627 80.83 27.8203 81.4383 27.8446 82.0591C27.8688 82.6798 27.7591 83.2986 27.5229 83.8732C27.2867 84.4478 26.9296 84.9648 26.4759 85.3891C26.0221 85.8135 25.4823 86.1351 24.8931 86.3322C24.304 86.5294 23.6793 86.5973 23.0615 86.5316C22.4438 86.4658 21.8474 86.2677 21.313 85.951C20.8245 86.3441 20.216 86.558 19.589 86.557C19.112 86.558 18.643 86.434 18.229 86.199C18.0517 86.5885 17.7522 86.9095 17.3759 87.1133C16.9995 87.3171 16.567 87.3926 16.1439 87.3282C15.7208 87.2638 15.3303 87.0632 15.0316 86.7567C14.7329 86.4502 14.5424 86.0546 14.489 85.63C14.1332 85.7582 13.7518 85.7991 13.3769 85.7491C13.0021 85.6991 12.6447 85.5598 12.3349 85.3429C12.0251 85.1259 11.772 84.8377 11.5969 84.5025C11.4218 84.1673 11.3299 83.7949 11.3287 83.4167C11.3276 83.0385 11.4174 82.6656 11.5906 82.3294C11.7637 81.9931 12.0151 81.7034 12.3236 81.4847C12.6321 81.2659 12.9887 81.1245 13.3633 81.0723C13.7378 81.0202 14.1195 81.0588 14.476 81.185C14.4542 80.6814 14.5537 80.18 14.766 79.7228C14.9784 79.2657 15.2974 78.8663 15.6962 78.5581C16.0951 78.2499 16.5621 78.0419 17.058 77.9518C17.5539 77.8616 18.0642 77.8919 18.546 78.04C18.4129 77.607 18.3748 77.1505 18.4343 76.7014C18.4937 76.2524 18.6494 75.8215 18.8907 75.4382C19.1319 75.0548 19.4531 74.728 19.8322 74.4801C20.2113 74.2323 20.6394 74.0691 21.0873 74.0018C21.5352 73.9345 21.9924 73.9647 22.4276 74.0902C22.8628 74.2158 23.2658 74.4338 23.609 74.7293C23.9522 75.0248 24.2277 75.391 24.4165 75.8027C24.6053 76.2144 24.703 76.661 24.703 77.114Z" fill="url(#paint2_radial_1_106)"/>
<path id="Vector_4" fill-rule="evenodd" clip-rule="evenodd" d="M52.244 20.459C52.244 20.847 52.174 21.219 52.046 21.561C52.28 21.675 52.498 21.817 52.696 21.983C53.0114 21.4587 53.4728 21.0378 54.0237 20.7717C54.5747 20.5057 55.1913 20.406 55.798 20.485C56.1435 19.871 56.685 19.3906 57.3359 19.1209C57.9868 18.8512 58.7094 18.8077 59.3879 18.9974C60.0665 19.187 60.6618 19.599 61.0784 20.1671C61.4951 20.7353 61.709 21.4268 61.686 22.131C62.0953 22.237 62.4791 22.4243 62.8146 22.6816C63.1502 22.939 63.4305 23.2612 63.639 23.629C64.422 23.724 65.14 24.109 65.652 24.707C66.4243 24.3774 67.2818 24.3035 68.0991 24.4961C68.9163 24.6887 69.6506 25.1377 70.1945 25.7775C70.7384 26.4172 71.0633 27.2141 71.1219 28.0518C71.1805 28.8894 70.9696 29.7238 70.52 30.433C71.079 30.808 71.503 31.351 71.732 31.985C72.2081 31.3335 72.9163 30.8896 73.7103 30.7452C74.5042 30.6008 75.3233 30.7668 75.9984 31.2089C76.6735 31.6511 77.153 32.3356 77.3379 33.1211C77.5228 33.9066 77.399 34.7332 76.992 35.43C77.5259 35.4906 78.0354 35.6869 78.4719 36.0002C78.9084 36.3135 79.2575 36.7333 79.4858 37.2197C79.7141 37.7061 79.8141 38.2428 79.7762 38.7788C79.7383 39.3148 79.5638 39.8321 79.2694 40.2816C78.9749 40.731 78.5703 41.0976 78.094 41.3463C77.6177 41.5951 77.0857 41.7178 76.5486 41.7027C76.0115 41.6876 75.4872 41.5352 75.0257 41.2601C74.5642 40.985 74.1807 40.5963 73.912 40.131H24.702V38.923C24.1089 39.2651 23.4205 39.4046 22.741 39.3202C22.0616 39.2359 21.4281 38.9323 20.9367 38.4555C20.4454 37.9787 20.1228 37.3547 20.018 36.6781C19.9132 36.0014 20.0319 35.3091 20.356 34.706C19.7474 34.212 19.345 33.5086 19.2275 32.7335C19.1101 31.9584 19.2861 31.1674 19.721 30.5152C20.156 29.8631 20.8186 29.3966 21.5793 29.2072C22.34 29.0178 23.144 29.119 23.834 29.491C24.1286 29.1274 24.5008 28.8341 24.9233 28.6327C25.3458 28.4313 25.808 28.3269 26.276 28.327C26.2758 27.8792 26.3711 27.4366 26.5557 27.0286C26.7402 26.6207 27.0097 26.2568 27.3461 25.9613C27.6825 25.6658 28.0781 25.4454 28.5064 25.315C28.9347 25.1846 29.386 25.1471 29.83 25.205C30.1411 24.6544 30.6109 24.2103 31.1782 23.9306C31.7454 23.6509 32.3838 23.5486 33.01 23.637C32.6257 22.9907 32.4855 22.2282 32.6148 21.4875C32.744 20.7468 33.1342 20.0768 33.7147 19.5989C34.2953 19.121 35.0277 18.8668 35.7794 18.8822C36.5312 18.8976 37.2526 19.1817 37.813 19.683C38.5084 19.624 39.2038 19.7976 39.7898 20.1766C40.3759 20.5557 40.8195 21.1186 41.051 21.777C41.461 21.501 41.931 21.327 42.422 21.267C42.7693 20.6533 43.3126 20.1739 43.9649 19.9059C44.6171 19.6379 45.3405 19.5967 46.019 19.789C46.1841 19.0301 46.624 18.359 47.254 17.9049C47.884 17.4507 48.6597 17.2454 49.4319 17.3285C50.2041 17.4116 50.9183 17.7773 51.4372 18.3552C51.9562 18.933 52.2441 19.6823 52.244 20.459Z" fill="url(#paint3_radial_1_106)"/>
<path id="Vector_5" opacity="0.6" d="M46.343 36.984C47.3247 36.984 48.2968 36.7907 49.2037 36.415C50.1107 36.0393 50.9348 35.4887 51.629 34.7945C52.3231 34.1003 52.8738 33.2762 53.2495 32.3693C53.6251 31.4623 53.8185 30.4902 53.8185 29.5085C53.8185 28.5268 53.6251 27.5547 53.2495 26.6478C52.8738 25.7408 52.3231 24.9167 51.629 24.2225C50.9348 23.5284 50.1107 22.9777 49.2037 22.6021C48.2968 22.2264 47.3247 22.033 46.343 22.033C44.3605 22.033 42.4592 22.8206 41.0574 24.2224C39.6555 25.6242 38.868 27.5255 38.868 29.508C38.868 31.4905 39.6555 33.3918 41.0574 34.7936C42.4592 36.1955 44.3605 36.984 46.343 36.984Z" fill="url(#paint4_radial_1_106)"/>
<path id="Vector_6" opacity="0.6" d="M43.982 32.262C45.3386 32.262 46.6396 31.7231 47.5989 30.7638C48.5581 29.8046 49.097 28.5036 49.097 27.147C49.097 25.7904 48.5581 24.4894 47.5989 23.5301C46.6396 22.5709 45.3386 22.032 43.982 22.032C42.6254 22.032 41.3244 22.5709 40.3652 23.5301C39.4059 24.4894 38.867 25.7904 38.867 27.147C38.867 28.5036 39.4059 29.8046 40.3652 30.7638C41.3244 31.7231 42.6254 32.262 43.982 32.262Z" fill="url(#paint5_radial_1_106)"/>
<path id="Vector_7" opacity="0.6" d="M42.408 36.197C43.7646 36.197 45.0656 35.6581 46.0248 34.6988C46.9841 33.7396 47.523 32.4386 47.523 31.082C47.523 29.7254 46.9841 28.4244 46.0248 27.4651C45.0656 26.5059 43.7646 25.967 42.408 25.967C41.0514 25.967 39.7504 26.5059 38.7911 27.4651C37.8319 28.4244 37.293 29.7254 37.293 31.082C37.293 32.4386 37.8319 33.7396 38.7911 34.6988C39.7504 35.6581 41.0514 36.197 42.408 36.197Z" fill="url(#paint6_radial_1_106)"/>
<path id="Vector_8" opacity="0.6" d="M27.458 38.557C28.8146 38.557 30.1156 38.0181 31.0749 37.0589C32.0341 36.0996 32.573 34.7986 32.573 33.442C32.573 32.0854 32.0341 30.7844 31.0749 29.8252C30.1156 28.8659 28.8146 28.327 27.458 28.327C26.1014 28.327 24.8004 28.8659 23.8412 29.8252C22.8819 30.7844 22.343 32.0854 22.343 33.442C22.343 34.7986 22.8819 36.0996 23.8412 37.0589C24.8004 38.0181 26.1014 38.557 27.458 38.557Z" fill="url(#paint7_radial_1_106)"/>
<path id="Vector_9" opacity="0.6" d="M30.605 36.197C31.9616 36.197 33.2626 35.6581 34.2218 34.6988C35.1811 33.7396 35.72 32.4386 35.72 31.082C35.72 29.7254 35.1811 28.4244 34.2218 27.4651C33.2626 26.5059 31.9616 25.967 30.605 25.967C29.2484 25.967 27.9474 26.5059 26.9881 27.4651C26.0289 28.4244 25.49 29.7254 25.49 31.082C25.49 32.4386 26.0289 33.7396 26.9881 34.6988C27.9474 35.6581 29.2484 36.197 30.605 36.197Z" fill="url(#paint8_radial_1_106)"/>
<path id="Vector_10" opacity="0.6" d="M30.605 37.77C31.3354 37.77 32.0359 37.4799 32.5524 36.9634C33.0688 36.4469 33.359 35.7464 33.359 35.016C33.359 34.2856 33.0688 33.5851 32.5524 33.0686C32.0359 32.5522 31.3354 32.262 30.605 32.262C29.8746 32.262 29.1741 32.5522 28.6576 33.0686C28.1411 33.5851 27.851 34.2856 27.851 35.016C27.851 35.7464 28.1411 36.4469 28.6576 36.9634C29.1741 37.4799 29.8746 37.77 30.605 37.77Z" fill="url(#paint9_radial_1_106)"/>
<path id="Vector_11" opacity="0.2" d="M73.884 36.197C74.6144 36.197 75.3149 35.9069 75.8314 35.3904C76.3479 34.8739 76.638 34.1734 76.638 33.443C76.638 32.7126 76.3479 32.0121 75.8314 31.4957C75.3149 30.9792 74.6144 30.689 73.884 30.689C73.1536 30.689 72.4531 30.9792 71.9366 31.4957C71.4202 32.0121 71.13 32.7126 71.13 33.443C71.13 34.1734 71.4202 34.8739 71.9366 35.3904C72.4531 35.9069 73.1536 36.197 73.884 36.197Z" fill="url(#paint10_radial_1_106)"/>
<path id="Vector_12" opacity="0.2" d="M77.031 39.344C77.5527 39.344 78.053 39.1367 78.4219 38.7679C78.7908 38.399 78.998 37.8987 78.998 37.377C78.998 36.8553 78.7908 36.355 78.4219 35.9861C78.053 35.6172 77.5527 35.41 77.031 35.41C76.5093 35.41 76.009 35.6172 75.6401 35.9861C75.2712 36.355 75.064 36.8553 75.064 37.377C75.064 37.8987 75.2712 38.399 75.6401 38.7679C76.009 39.1367 76.5093 39.344 77.031 39.344Z" fill="url(#paint11_radial_1_106)"/>
<path id="Vector_13" opacity="0.3" d="M73.097 40.131C74.0361 40.131 74.9368 39.7579 75.6009 39.0939C76.2649 38.4298 76.638 37.5291 76.638 36.59C76.638 35.6509 76.2649 34.7502 75.6009 34.0861C74.9368 33.4221 74.0361 33.049 73.097 33.049C72.1579 33.049 71.2572 33.4221 70.5931 34.0861C69.9291 34.7502 69.556 35.6509 69.556 36.59C69.556 37.5291 69.9291 38.4298 70.5931 39.0939C71.2572 39.7579 72.1579 40.131 73.097 40.131Z" fill="url(#paint12_radial_1_106)"/>
<path id="Vector_14" opacity="0.2" d="M58.933 24.393C59.2947 24.393 59.6528 24.3218 59.9869 24.1834C60.321 24.045 60.6246 23.8421 60.8804 23.5864C61.1361 23.3306 61.339 23.027 61.4774 22.6929C61.6158 22.3588 61.687 22.0007 61.687 21.639C61.687 21.2773 61.6158 20.9192 61.4774 20.5851C61.339 20.251 61.1361 19.9474 60.8804 19.6916C60.6246 19.4359 60.321 19.233 59.9869 19.0946C59.6528 18.9562 59.2947 18.885 58.933 18.885C58.2026 18.885 57.5021 19.1752 56.9856 19.6916C56.4692 20.2081 56.179 20.9086 56.179 21.639C56.179 22.3694 56.4692 23.0699 56.9856 23.5864C57.5021 24.1029 58.2026 24.393 58.933 24.393Z" fill="url(#paint13_radial_1_106)"/>
<path id="Vector_15" opacity="0.2" d="M48.703 21.246C49.2248 21.246 49.7253 21.0387 50.0942 20.6697C50.4632 20.3007 50.6705 19.8003 50.6705 19.2785C50.6705 18.7567 50.4632 18.2562 50.0942 17.8872C49.7253 17.5183 49.2248 17.311 48.703 17.311C48.1812 17.311 47.6807 17.5183 47.3118 17.8872C46.9428 18.2562 46.7355 18.7567 46.7355 19.2785C46.7355 19.8003 46.9428 20.3007 47.3118 20.6697C47.6807 21.0387 48.1812 21.246 48.703 21.246Z" fill="url(#paint14_radial_1_106)"/>
<path id="Vector_16" opacity="0.2" d="M35.326 23.607C35.8478 23.607 36.3482 23.3997 36.7172 23.0307C37.0862 22.6618 37.2935 22.1613 37.2935 21.6395C37.2935 21.1177 37.0862 20.6172 36.7172 20.2483C36.3482 19.8793 35.8478 19.672 35.326 19.672C34.8042 19.672 34.3037 19.8793 33.9348 20.2483C33.5658 20.6172 33.3585 21.1177 33.3585 21.6395C33.3585 22.1613 33.5658 22.6618 33.9348 23.0307C34.3037 23.3997 34.8042 23.607 35.326 23.607Z" fill="url(#paint15_radial_1_106)"/>
<path id="Vector_17" opacity="0.2" d="M62.08 33.05C63.4366 33.05 64.7376 32.5111 65.6968 31.5519C66.6561 30.5926 67.195 29.2916 67.195 27.935C67.195 26.5784 66.6561 25.2774 65.6968 24.3182C64.7376 23.3589 63.4366 22.82 62.08 22.82C60.7234 22.82 59.4224 23.3589 58.4631 24.3182C57.5039 25.2774 56.965 26.5784 56.965 27.935C56.965 29.2916 57.5039 30.5926 58.4631 31.5519C59.4224 32.5111 60.7234 33.05 62.08 33.05Z" fill="url(#paint16_radial_1_106)"/>
<path id="Vector_18" opacity="0.6" d="M57.36 31.475C58.0377 31.4845 58.7104 31.3592 59.3393 31.1064C59.9681 30.8536 60.5404 30.4784 61.023 30.0025C61.5056 29.5267 61.8887 28.9596 62.1503 28.3344C62.4118 27.7092 62.5465 27.0382 62.5465 26.3605C62.5465 25.6828 62.4118 25.0118 62.1503 24.3866C61.8887 23.7613 61.5056 23.1943 61.023 22.7184C60.5404 22.2426 59.9681 21.8673 59.3393 21.6146C58.7104 21.3618 58.0377 21.2365 57.36 21.246C56.0034 21.246 54.7024 21.7849 53.7431 22.7441C52.7839 23.7034 52.245 25.0044 52.245 26.361C52.245 27.7176 52.7839 29.0186 53.7431 29.9778C54.7024 30.9371 56.0034 31.475 57.36 31.475Z" fill="url(#paint17_radial_1_106)"/>
<path id="Vector_19" opacity="0.2" d="M59.72 33.836C61.0766 33.836 62.3776 33.2971 63.3368 32.3379C64.2961 31.3786 64.835 30.0776 64.835 28.721C64.835 27.3644 64.2961 26.0634 63.3368 25.1042C62.3776 24.1449 61.0766 23.606 59.72 23.606C58.3634 23.606 57.0624 24.1449 56.1031 25.1042C55.1439 26.0634 54.605 27.3644 54.605 28.721C54.605 30.0776 55.1439 31.3786 56.1031 32.3379C57.0624 33.2971 58.3634 33.836 59.72 33.836Z" fill="url(#paint18_radial_1_106)"/>
<path id="Vector_20" d="M19.195 36.984H64.048L60.113 88.918H22.343L19.195 36.984Z" fill="url(#paint19_linear_1_106)"/>
<path id="Vector_21" d="M71.917 85.77L60.113 88.918L64.048 36.984L78.998 40.918L71.917 85.77Z" fill="url(#paint20_linear_1_106)"/>
<path id="Vector_22" fill-rule="evenodd" clip-rule="evenodd" d="M46.64 47.333L46.894 36.983H37.506L37.61 46.823C35.9712 47.1893 34.3982 47.8048 32.946 48.648L32.619 36.984H23.212L26.139 88.918H34.082L33.765 77.698C35.0886 78.3692 36.4971 78.858 37.952 79.151L38.057 88.918H45.615L45.865 78.817C47.1497 78.4418 48.3838 77.9112 49.54 77.237L49.17 88.918H57.491L60.232 36.984H50.815L50.427 49.221C49.2508 48.4314 47.9776 47.7968 46.639 47.333H46.64ZM62.718 88.223L65.668 87.437L71.513 38.949L67.012 37.763L62.718 88.223ZM67.348 86.989L69.665 86.371L77.503 40.525L73.128 39.373L67.348 86.989ZM53.817 62.95C53.817 69.903 48.181 75.54 41.227 75.54C34.273 75.54 28.637 69.904 28.637 62.95C28.637 55.996 34.273 50.36 41.227 50.36C48.181 50.36 53.817 55.996 53.817 62.95ZM46.645 69.745L44.95 64.26L49.058 61.213C49.1217 61.1658 49.1695 61.1003 49.195 61.0252C49.2206 60.9502 49.2226 60.8691 49.2009 60.7928C49.1791 60.7166 49.1347 60.6488 49.0734 60.5984C49.0122 60.5481 48.937 60.5176 48.858 60.511C47.1329 60.3718 45.4042 60.2804 43.674 60.237L41.598 54.525C41.5703 54.4492 41.5199 54.3837 41.4537 54.3375C41.3875 54.2912 41.3087 54.2664 41.228 54.2664C41.1473 54.2664 41.0685 54.2912 41.0023 54.3375C40.9361 54.3837 40.8858 54.4492 40.858 54.525L38.782 60.237C37.022 60.281 35.292 60.374 33.597 60.511C33.5181 60.5179 33.4433 60.5487 33.3823 60.5992C33.3213 60.6496 33.2771 60.7175 33.2557 60.7937C33.2342 60.8699 33.2364 60.9508 33.262 61.0257C33.2876 61.1006 33.3354 61.1659 33.399 61.213L37.506 64.259L35.81 69.744C35.7859 69.8221 35.7867 69.9056 35.8122 69.9832C35.8377 70.0608 35.8866 70.1285 35.9523 70.177C36.018 70.2256 36.0971 70.2525 36.1787 70.2541C36.2604 70.2557 36.3405 70.2319 36.408 70.186L41.228 66.905L46.048 70.186C46.1155 70.2321 46.1956 70.2562 46.2773 70.2547C46.359 70.2533 46.4382 70.2265 46.504 70.1781C46.5698 70.1296 46.6189 70.0619 46.6445 69.9844C46.6701 69.9068 46.671 69.8231 46.647 69.745H46.645Z" fill="url(#paint21_linear_1_106)"/>
<path id="Vector_23" opacity="0.4" d="M17.228 82.623C17.7497 82.623 18.25 82.4158 18.6189 82.0469C18.9878 81.678 19.195 81.1777 19.195 80.656C19.195 80.1343 18.9878 79.634 18.6189 79.2651C18.25 78.8963 17.7497 78.689 17.228 78.689C16.7063 78.689 16.206 78.8963 15.8371 79.2651C15.4682 79.634 15.261 80.1343 15.261 80.656C15.261 81.1777 15.4682 81.678 15.8371 82.0469C16.206 82.4158 16.7063 82.623 17.228 82.623Z" fill="url(#paint22_radial_1_106)"/>
<path id="Vector_24" opacity="0.4" d="M14.08 84.984C14.6018 84.984 15.1023 84.7767 15.4712 84.4077C15.8402 84.0388 16.0475 83.5383 16.0475 83.0165C16.0475 82.4947 15.8402 81.9943 15.4712 81.6253C15.1023 81.2563 14.6018 81.049 14.08 81.049C13.5582 81.049 13.0577 81.2563 12.6888 81.6253C12.3198 81.9943 12.1125 82.4947 12.1125 83.0165C12.1125 83.5383 12.3198 84.0388 12.6888 84.4077C13.0577 84.7767 13.5582 84.984 14.08 84.984Z" fill="url(#paint23_radial_1_106)"/>
<path id="Vector_25" opacity="0.4" d="M16.441 84.984C16.9628 84.984 17.4632 84.7767 17.8322 84.4077C18.2012 84.0388 18.4085 83.5383 18.4085 83.0165C18.4085 82.4947 18.2012 81.9943 17.8322 81.6253C17.4632 81.2563 16.9628 81.049 16.441 81.049C15.9192 81.049 15.4187 81.2563 15.0498 81.6253C14.6808 81.9943 14.4735 82.4947 14.4735 83.0165C14.4735 83.5383 14.6808 84.0388 15.0498 84.4077C15.4187 84.7767 15.9192 84.984 16.441 84.984Z" fill="url(#paint24_radial_1_106)"/>
<path id="Vector_26" opacity="0.4" d="M19.589 86.557C19.8473 86.557 20.1031 86.5061 20.3417 86.4073C20.5804 86.3084 20.7972 86.1635 20.9799 85.9809C21.1625 85.7982 21.3074 85.5814 21.4063 85.3427C21.5051 85.1041 21.556 84.8483 21.556 84.59C21.556 84.3317 21.5051 84.0759 21.4063 83.8372C21.3074 83.5986 21.1625 83.3818 20.9799 83.1991C20.7972 83.0165 20.5804 82.8716 20.3417 82.7727C20.1031 82.6739 19.8473 82.623 19.589 82.623C19.0673 82.623 18.567 82.8302 18.1981 83.1991C17.8292 83.568 17.622 84.0683 17.622 84.59C17.622 85.1117 17.8292 85.612 18.1981 85.9809C18.567 86.3497 19.0673 86.557 19.589 86.557Z" fill="url(#paint25_radial_1_106)"/>
<path id="Vector_27" opacity="0.4" d="M82.54 85.77C83.0617 85.77 83.562 85.5628 83.9309 85.1939C84.2998 84.825 84.507 84.3247 84.507 83.803C84.507 83.2813 84.2998 82.781 83.9309 82.4121C83.562 82.0432 83.0617 81.836 82.54 81.836C82.0183 81.836 81.518 82.0432 81.1491 82.4121C80.7802 82.781 80.573 83.2813 80.573 83.803C80.573 84.3247 80.7802 84.825 81.1491 85.1939C81.518 85.5628 82.0183 85.77 82.54 85.77Z" fill="url(#paint26_radial_1_106)"/>
<path id="Vector_28" opacity="0.4" d="M82.146 82.623C82.772 82.623 83.3724 82.3743 83.8151 81.9316C84.2578 81.4889 84.5065 80.8885 84.5065 80.2625C84.5065 79.6364 84.2578 79.036 83.8151 78.5934C83.3724 78.1507 82.772 77.902 82.146 77.902C81.5199 77.902 80.9195 78.1507 80.4769 78.5934C80.0342 79.036 79.7855 79.6364 79.7855 80.2625C79.7855 80.8885 80.0342 81.4889 80.4769 81.9316C80.9195 82.3743 81.5199 82.623 82.146 82.623Z" fill="url(#paint27_radial_1_106)"/>
<path id="Vector_29" opacity="0.4" d="M78.212 82.623C78.838 82.623 79.4385 82.3743 79.8811 81.9316C80.3238 81.4889 80.5725 80.8885 80.5725 80.2625C80.5725 79.6364 80.3238 79.036 79.8811 78.5934C79.4385 78.1507 78.838 77.902 78.212 77.902C77.586 77.902 76.9856 78.1507 76.5429 78.5934C76.1002 79.036 75.8515 79.6364 75.8515 80.2625C75.8515 80.8885 76.1002 81.4889 76.5429 81.9316C76.9856 82.3743 77.586 82.623 78.212 82.623Z" fill="url(#paint28_radial_1_106)"/>
<path id="Vector_30" opacity="0.4" d="M75.457 81.836C76.1874 81.836 76.8879 81.5458 77.4044 81.0294C77.9209 80.5129 78.211 79.8124 78.211 79.082C78.211 78.3516 77.9209 77.6511 77.4044 77.1346C76.8879 76.6182 76.1874 76.328 75.457 76.328C74.7266 76.328 74.0261 76.6182 73.5096 77.1346C72.9932 77.6511 72.703 78.3516 72.703 79.082C72.703 79.8124 72.9932 80.5129 73.5096 81.0294C74.0261 81.5458 74.7266 81.836 75.457 81.836Z" fill="url(#paint29_radial_1_106)"/>
<path id="Vector_31" opacity="0.4" d="M18.802 84.984C19.5325 84.984 20.2332 84.6938 20.7497 84.1772C21.2663 83.6606 21.5565 82.96 21.5565 82.2295C21.5565 81.4989 21.2663 80.7983 20.7497 80.2818C20.2332 79.7652 19.5325 79.475 18.802 79.475C18.0715 79.475 17.3708 79.7652 16.8543 80.2818C16.3377 80.7983 16.0475 81.4989 16.0475 82.2295C16.0475 82.96 16.3377 83.6606 16.8543 84.1772C17.3708 84.6938 18.0715 84.984 18.802 84.984Z" fill="url(#paint30_radial_1_106)"/>
<path id="Vector_32" fill-rule="evenodd" clip-rule="evenodd" d="M74.277 79.475C74.903 79.4752 75.5033 79.7241 75.9458 80.1669C76.3884 80.6096 76.637 81.21 76.637 81.836C77.0881 81.8357 77.534 81.9324 77.9445 82.1196C78.3549 82.3067 78.7204 82.5798 79.0161 82.9205C79.3118 83.2612 79.5308 83.6614 79.6583 84.0941C79.7858 84.5268 79.8189 84.9819 79.7552 85.4285C79.6915 85.8751 79.5325 86.3027 79.2891 86.6825C79.0457 87.0623 78.7236 87.3854 78.3444 87.6298C77.9653 87.8742 77.538 88.0343 77.0916 88.0992C76.6452 88.1641 76.19 88.1323 75.757 88.006C75.5936 88.5751 75.2222 89.062 74.7165 89.3701C74.2108 89.6782 73.6078 89.7849 73.0271 89.6691C72.4464 89.5533 71.9304 89.2234 71.5816 88.7449C71.2328 88.2664 71.0766 87.6743 71.144 87.086C70.607 86.8347 70.1654 86.417 69.8847 85.8947C69.6041 85.3725 69.4994 84.7736 69.5862 84.1872C69.673 83.6007 69.9467 83.0579 70.3666 82.6393C70.7865 82.2208 71.3302 81.9489 71.917 81.864V81.836C71.917 81.2101 72.1656 80.6098 72.6082 80.1672C73.0508 79.7246 73.6511 79.475 74.277 79.475Z" fill="url(#paint31_radial_1_106)"/>
</g>
<defs>
<radialGradient id="paint0_radial_1_106" cx="0" cy="0" r="1" gradientUnits="userSpaceOnUse" gradientTransform="translate(48.31 86.604) rotate(-90) scale(8.70201 48.2567)">
<stop offset="0.286" stop-color="#7D2889"/>
<stop offset="0.724" stop-color="#FF66D9" stop-opacity="0.41"/>
<stop offset="1" stop-color="white" stop-opacity="0"/>
</radialGradient>
<radialGradient id="paint1_radial_1_106" cx="0" cy="0" r="1" gradientUnits="userSpaceOnUse" gradientTransform="translate(48.31 39.155) rotate(-90) scale(38.3681 48.2567)">
<stop stop-color="#FFCA45"/>
<stop offset="0.453" stop-color="#FF66D9" stop-opacity="0.36"/>
<stop offset="1" stop-color="white" stop-opacity="0"/>
</radialGradient>
<radialGradient id="paint2_radial_1_106" cx="0" cy="0" r="1" gradientUnits="userSpaceOnUse" gradientTransform="translate(47.13 79.476) rotate(180) scale(37.7705 37.7705)">
<stop offset="0.432" stop-color="#FF8B54"/>
<stop offset="0.76" stop-color="#FFBB8D"/>
<stop offset="1" stop-color="#F9DDD1"/>
</radialGradient>
<radialGradient id="paint3_radial_1_106" cx="0" cy="0" r="1" gradientUnits="userSpaceOnUse" gradientTransform="translate(47.917 27.934) rotate(-90) scale(10.623 28.257)">
<stop offset="0.302" stop-color="#F9DDD1"/>
<stop offset="0.674" stop-color="#FFBB8D"/>
<stop offset="1" stop-color="#FF8B54"/>
</radialGradient>
<radialGradient id="paint4_radial_1_106" cx="0" cy="0" r="1" gradientUnits="userSpaceOnUse" gradientTransform="translate(46.342 29.948) rotate(90) scale(7.03568)">
<stop offset="0.375" stop-color="#FFF4EB"/>
<stop offset="1" stop-color="#FFF3EB" stop-opacity="0"/>
</radialGradient>
<radialGradient id="paint5_radial_1_106" cx="0" cy="0" r="1" gradientUnits="userSpaceOnUse" gradientTransform="translate(43.982 27.448) rotate(90) scale(4.81389)">
<stop offset="0.375" stop-color="#FFF4EB"/>
<stop offset="1" stop-color="#FFF3EB" stop-opacity="0"/>
</radialGradient>
<radialGradient id="paint6_radial_1_106" cx="0" cy="0" r="1" gradientUnits="userSpaceOnUse" gradientTransform="translate(42.408 31.382) rotate(90) scale(4.81389)">
<stop offset="0.375" stop-color="#FFF4EB"/>
<stop offset="1" stop-color="#FFF3EB" stop-opacity="0"/>
</radialGradient>
<radialGradient id="paint7_radial_1_106" cx="0" cy="0" r="1" gradientUnits="userSpaceOnUse" gradientTransform="translate(27.457 33.743) rotate(90) scale(4.81389)">
<stop offset="0.375" stop-color="#FFF4EB"/>
<stop offset="1" stop-color="#FFF3EB" stop-opacity="0"/>
</radialGradient>
<radialGradient id="paint8_radial_1_106" cx="0" cy="0" r="1" gradientUnits="userSpaceOnUse" gradientTransform="translate(30.605 31.383) rotate(90) scale(4.81389)">
<stop offset="0.375" stop-color="#FFF4EB"/>
<stop offset="1" stop-color="#FFF3EB" stop-opacity="0"/>
</radialGradient>
<radialGradient id="paint9_radial_1_106" cx="0" cy="0" r="1" gradientUnits="userSpaceOnUse" gradientTransform="translate(30.605 35.179) rotate(90) scale(2.59209)">
<stop offset="0.375" stop-color="#FFF4EB"/>
<stop offset="1" stop-color="#FFF3EB" stop-opacity="0"/>
</radialGradient>
<radialGradient id="paint10_radial_1_106" cx="0" cy="0" r="1" gradientUnits="userSpaceOnUse" gradientTransform="translate(73.885 33.605) rotate(90) scale(2.59209 2.59209)">
<stop offset="0.375" stop-color="#FFF4EB"/>
<stop offset="1" stop-color="#FFF3EB" stop-opacity="0"/>
</radialGradient>
<radialGradient id="paint11_radial_1_106" cx="0" cy="0" r="1" gradientUnits="userSpaceOnUse" gradientTransform="translate(77.031 37.493) rotate(90) scale(1.85149 1.85149)">
<stop offset="0.375" stop-color="#FFF4EB"/>
<stop offset="1" stop-color="#FFF3EB" stop-opacity="0"/>
</radialGradient>
<radialGradient id="paint12_radial_1_106" cx="0" cy="0" r="1" gradientUnits="userSpaceOnUse" gradientTransform="translate(73.096 36.798) rotate(90) scale(3.33269)">
<stop offset="0.375" stop-color="#FFF4EB"/>
<stop offset="1" stop-color="#FFF3EB" stop-opacity="0"/>
</radialGradient>
<radialGradient id="paint13_radial_1_106" cx="0" cy="0" r="1" gradientUnits="userSpaceOnUse" gradientTransform="translate(58.932 21.802) rotate(90) scale(2.59209)">
<stop offset="0.375" stop-color="#FFF4EB"/>
<stop offset="1" stop-color="#FFF3EB" stop-opacity="0"/>
</radialGradient>
<radialGradient id="paint14_radial_1_106" cx="0" cy="0" r="1" gradientUnits="userSpaceOnUse" gradientTransform="translate(48.704 19.394) rotate(90) scale(1.8515)">
<stop offset="0.375" stop-color="#FFF4EB"/>
<stop offset="1" stop-color="#FFF3EB" stop-opacity="0"/>
</radialGradient>
<radialGradient id="paint15_radial_1_106" cx="0" cy="0" r="1" gradientUnits="userSpaceOnUse" gradientTransform="translate(35.326 21.756) rotate(90) scale(1.85149)">
<stop offset="0.375" stop-color="#FFF4EB"/>
<stop offset="1" stop-color="#FFF3EB" stop-opacity="0"/>
</radialGradient>
<radialGradient id="paint16_radial_1_106" cx="0" cy="0" r="1" gradientUnits="userSpaceOnUse" gradientTransform="translate(62.081 28.235) rotate(90) scale(4.81389 4.81389)">
<stop offset="0.375" stop-color="#FFF4EB"/>
<stop offset="1" stop-color="#FFF3EB" stop-opacity="0"/>
</radialGradient>
<radialGradient id="paint17_radial_1_106" cx="0" cy="0" r="1" gradientUnits="userSpaceOnUse" gradientTransform="translate(57.359 26.661) rotate(90) scale(4.81389)">
<stop offset="0.375" stop-color="#FFF4EB"/>
<stop offset="1" stop-color="#FFF3EB" stop-opacity="0"/>
</radialGradient>
<radialGradient id="paint18_radial_1_106" cx="0" cy="0" r="1" gradientUnits="userSpaceOnUse" gradientTransform="translate(59.72 29.022) rotate(90) scale(4.81389 4.81389)">
<stop offset="0.375" stop-color="#FFF4EB"/>
<stop offset="1" stop-color="#FFF3EB" stop-opacity="0"/>
</radialGradient>
<linearGradient id="paint19_linear_1_106" x1="60.113" y1="88.918" x2="34.074" y2="21.046" gradientUnits="userSpaceOnUse">
<stop stop-color="#E0B1CC"/>
<stop offset="0.431" stop-color="#FFF1F1"/>
<stop offset="1" stop-color="#FFC9A5"/>
</linearGradient>
<linearGradient id="paint20_linear_1_106" x1="60.113" y1="53.115" x2="83.72" y2="53.115" gradientUnits="userSpaceOnUse">
<stop stop-color="#D16AE9"/>
<stop offset="1" stop-color="#FF661D"/>
</linearGradient>
<linearGradient id="paint21_linear_1_106" x1="18.421" y1="36.984" x2="75.446" y2="85.621" gradientUnits="userSpaceOnUse">
<stop stop-color="#FF661D"/>
<stop offset="0.5" stop-color="#CE3A00"/>
<stop offset="1" stop-color="#A60A5E"/>
</linearGradient>
<radialGradient id="paint22_radial_1_106" cx="0" cy="0" r="1" gradientUnits="userSpaceOnUse" gradientTransform="translate(17.228 80.772) rotate(90) scale(1.8515)">
<stop offset="0.375" stop-color="#F9DDD1"/>
<stop offset="1" stop-color="#FFF3EB" stop-opacity="0"/>
</radialGradient>
<radialGradient id="paint23_radial_1_106" cx="0" cy="0" r="1" gradientUnits="userSpaceOnUse" gradientTransform="translate(14.081 83.133) rotate(90) scale(1.8515 1.8515)">
<stop offset="0.375" stop-color="#F9DDD1"/>
<stop offset="1" stop-color="#FFF3EB" stop-opacity="0"/>
</radialGradient>
<radialGradient id="paint24_radial_1_106" cx="0" cy="0" r="1" gradientUnits="userSpaceOnUse" gradientTransform="translate(16.442 83.132) rotate(90) scale(1.8515)">
<stop offset="0.375" stop-color="#F9DDD1"/>
<stop offset="1" stop-color="#FFF3EB" stop-opacity="0"/>
</radialGradient>
<radialGradient id="paint25_radial_1_106" cx="0" cy="0" r="1" gradientUnits="userSpaceOnUse" gradientTransform="translate(19.589 84.707) rotate(90) scale(1.85149)">
<stop offset="0.375" stop-color="#F9DDD1"/>
<stop offset="1" stop-color="#FFF3EB" stop-opacity="0"/>
</radialGradient>
<radialGradient id="paint26_radial_1_106" cx="0" cy="0" r="1" gradientUnits="userSpaceOnUse" gradientTransform="translate(82.54 83.92) rotate(90) scale(1.85149)">
<stop offset="0.375" stop-color="#F9DDD1"/>
<stop offset="1" stop-color="#FFF3EB" stop-opacity="0"/>
</radialGradient>
<radialGradient id="paint27_radial_1_106" cx="0" cy="0" r="1" gradientUnits="userSpaceOnUse" gradientTransform="translate(82.146 80.4) rotate(90) scale(2.2218)">
<stop offset="0.375" stop-color="#F9DDD1"/>
<stop offset="1" stop-color="#FFF3EB" stop-opacity="0"/>
</radialGradient>
<radialGradient id="paint28_radial_1_106" cx="0" cy="0" r="1" gradientUnits="userSpaceOnUse" gradientTransform="translate(78.211 80.401) rotate(90) scale(2.2218)">
<stop offset="0.375" stop-color="#F9DDD1"/>
<stop offset="1" stop-color="#FFF3EB" stop-opacity="0"/>
</radialGradient>
<radialGradient id="paint29_radial_1_106" cx="0" cy="0" r="1" gradientUnits="userSpaceOnUse" gradientTransform="translate(75.458 79.244) rotate(90) scale(2.5921 2.5921)">
<stop offset="0.375" stop-color="#F9DDD1"/>
<stop offset="1" stop-color="#FFF3EB" stop-opacity="0"/>
</radialGradient>
<radialGradient id="paint30_radial_1_106" cx="0" cy="0" r="1" gradientUnits="userSpaceOnUse" gradientTransform="translate(18.802 82.392) rotate(90) scale(2.5921 2.5921)">
<stop offset="0.375" stop-color="#F9DDD1"/>
<stop offset="1" stop-color="#FFF3EB" stop-opacity="0"/>
</radialGradient>
<radialGradient id="paint31_radial_1_106" cx="0" cy="0" r="1" gradientUnits="userSpaceOnUse" gradientTransform="translate(76.6381 84.5904) rotate(111.038) scale(5.48002)">
<stop stop-color="#FDF7F2"/>
<stop offset="1" stop-color="#FFD8BD"/>
</radialGradient>
<clipPath id="clip0_1_106">
<rect width="96" height="96" fill="white" transform="translate(0.309998)"/>
</clipPath>
</defs>
</svg>
